<?xml version="1.0" encoding="UTF-8"?>
<svg xmlns="http://www.w3.org/2000/svg" xmlns:inkscape="http://www.inkscape.org/namespaces/inkscape" width="1189mm" height="420mm" viewBox="0 0 1189 420">
<!-- helix | engine=arc_diagram style=default people=23 hash=527be869af87 -->
<rect x="0" y="0" width="1189" height="420" fill="#FBF8F2"/>
<g id="ENGRAVE" inkscape:groupmode="layer" inkscape:label="ENGRAVE">
<path d="M26,366L1163,366" fill="none" stroke="#C9C0B0" stroke-width="0.3" stroke-linecap="round" stroke-linejoin="round"/>
<path d="M801.2273,366A103.3636,103.3636 0 0,1 1007.9545,366" fill="none" stroke="#22201D" stroke-width="0.4" stroke-linecap="round" stroke-linejoin="round" opacity="0.55"/>
<path d="M284.4091,366A51.6818,51.6818 0 0,1 387.7727,366" fill="none" stroke="#22201D" stroke-width="0.4" stroke-linecap="round" stroke-linejoin="round" opacity="0.55"/>
<path d="M801.2273,366A129.2045,129.2045 0 0,1 1059.6364,366" fill="none" stroke="#22201D" stroke-width="0.4" stroke-linecap="round" stroke-linejoin="round" opacity="0.55"/>
<path d="M801.2273,366A155.0455,150 0 0,1 1111.3182,366" fill="none" stroke="#22201D" stroke-width="0.4" stroke-linecap="round" stroke-linejoin="round" opacity="0.55"/>
<path d="M77.6818,366A25.8409,25.8409 0 0,1 129.3636,366" fill="none" stroke="#22201D" stroke-width="0.4" stroke-linecap="round" stroke-linejoin="round" opacity="0.55"/>
<path d="M284.4091,366A103.3636,103.3636 0 0,1 491.1364,366" fill="none" stroke="#22201D" stroke-width="0.4" stroke-linecap="round" stroke-linejoin="round" opacity="0.55"/>
<path d="M284.4091,366A155.0455,150 0 0,1 594.5,366" fill="none" stroke="#22201D" stroke-width="0.4" stroke-linecap="round" stroke-linejoin="round" opacity="0.55"/>
<path d="M284.4091,366A232.5682,150 0 0,1 749.5455,366" fill="none" stroke="#22201D" stroke-width="0.4" stroke-linecap="round" stroke-linejoin="round" opacity="0.55"/>
<path d="M284.4091,366A310.0909,150 0 0,1 904.5909,366" fill="none" stroke="#22201D" stroke-width="0.4" stroke-linecap="round" stroke-linejoin="round" opacity="0.55"/>
<path d="M284.4091,366A206.7273,150 0 0,1 697.8636,366" fill="none" stroke="#22201D" stroke-width="0.4" stroke-linecap="round" stroke-linejoin="round" opacity="0.55"/>
<circle cx="284.4091" cy="366" r="1.6" fill="#FBF8F2" stroke="#22201D" stroke-width="0.28" stroke-linecap="round" stroke-linejoin="round"/>
<circle cx="77.6818" cy="366" r="1.6" fill="#FBF8F2" stroke="#22201D" stroke-width="0.28" stroke-linecap="round" stroke-linejoin="round"/>
<circle cx="336.0909" cy="366" r="1.6" fill="#FBF8F2" stroke="#22201D" stroke-width="0.28" stroke-linecap="round" stroke-linejoin="round"/>
<circle cx="1007.9545" cy="366" r="1.6" fill="#FBF8F2" stroke="#22201D" stroke-width="0.28" stroke-linecap="round" stroke-linejoin="round"/>
<circle cx="232.7273" cy="366" r="1.6" fill="#FBF8F2" stroke="#22201D" stroke-width="0.28" stroke-linecap="round" stroke-linejoin="round"/>
<circle cx="26" cy="366" r="1.6" fill="#FBF8F2" stroke="#22201D" stroke-width="0.28" stroke-linecap="round" stroke-linejoin="round"/>
<circle cx="387.7727" cy="366" r="1.6" fill="#FBF8F2" stroke="#22201D" stroke-width="0.28" stroke-linecap="round" stroke-linejoin="round"/>
<circle cx="1059.6364" cy="366" r="1.6" fill="#FBF8F2" stroke="#22201D" stroke-width="0.28" stroke-linecap="round" stroke-linejoin="round"/>
<circle cx="181.0455" cy="366" r="1.6" fill="#FBF8F2" stroke="#22201D" stroke-width="0.28" stroke-linecap="round" stroke-linejoin="round"/>
<circle cx="646.1818" cy="366" r="1.6" fill="#FBF8F2" stroke="#22201D" stroke-width="0.28" stroke-linecap="round" stroke-linejoin="round"/>
<circle cx="1111.3182" cy="366" r="1.6" fill="#FBF8F2" stroke="#22201D" stroke-width="0.28" stroke-linecap="round" stroke-linejoin="round"/>
<circle cx="129.3636" cy="366" r="1.6" fill="#FBF8F2" stroke="#22201D" stroke-width="0.28" stroke-linecap="round" stroke-linejoin="round"/>
<circle cx="491.1364" cy="366" r="1.6" fill="#FBF8F2" stroke="#22201D" stroke-width="0.28" stroke-linecap="round" stroke-linejoin="round"/>
<circle cx="1163" cy="366" r="1.6" fill="#FBF8F2" stroke="#22201D" stroke-width="0.28" stroke-linecap="round" stroke-linejoin="round"/>
<circle cx="542.8182" cy="366" r="1.6" fill="#FBF8F2" stroke="#22201D" stroke-width="0.28" stroke-linecap="round" stroke-linejoin="round"/>
<circle cx="594.5" cy="366" r="1.6" fill="#FBF8F2" stroke="#22201D" stroke-width="0.28" stroke-linecap="round" stroke-linejoin="round"/>
<circle cx="749.5455" cy="366" r="1.6" fill="#FBF8F2" stroke="#22201D" stroke-width="0.28" stroke-linecap="round" stroke-linejoin="round"/>
<circle cx="439.4545" cy="366" r="1.6" fill="#FBF8F2" stroke="#22201D" stroke-width="0.28" stroke-linecap="round" stroke-linejoin="round"/>
<circle cx="904.5909" cy="366" r="1.6" fill="#FBF8F2" stroke="#22201D" stroke-width="0.28" stroke-linecap="round" stroke-linejoin="round"/>
<circle cx="852.9091" cy="366" r="1.6" fill="#FBF8F2" stroke="#22201D" stroke-width="0.28" stroke-linecap="round" stroke-linejoin="round"/>
<circle cx="697.8636" cy="366" r="1.6" fill="#FBF8F2" stroke="#22201D" stroke-width="0.28" stroke-linecap="round" stroke-linejoin="round"/>
<circle cx="801.2273" cy="366" r="1.6" fill="#FBF8F2" stroke="#22201D" stroke-width="0.28" stroke-linecap="round" stroke-linejoin="round"/>
<circle cx="956.2727" cy="366" r="1.6" fill="#FBF8F2" stroke="#22201D" stroke-width="0.28" stroke-linecap="round" stroke-linejoin="round"/>
<text x="284.4091" y="369" font-family="Georgia, 'Iowan Old Style', serif" font-size="3" fill="#22201D" text-anchor="start" dominant-baseline="central" transform="rotate(90,284.4091,369)">Joseph Ashworth</text>
<text x="77.6818" y="369" font-family="Georgia, 'Iowan Old Style', serif" font-size="3" fill="#22201D" text-anchor="start" dominant-baseline="central" transform="rotate(90,77.6818,369)">Ernest Whitcombe</text>
<text x="336.0909" y="369" font-family="Georgia, 'Iowan Old Style', serif" font-size="3" fill="#22201D" text-anchor="start" dominant-baseline="central" transform="rotate(90,336.0909,369)">Nathaniel Pargeter</text>
<text x="1007.9545" y="369" font-family="Georgia, 'Iowan Old Style', serif" font-size="3" fill="#22201D" text-anchor="start" dominant-baseline="central" transform="rotate(90,1007.9545,369)">Edward Ashworth</text>
<text x="232.7273" y="369" font-family="Georgia, 'Iowan Old Style', serif" font-size="3" fill="#22201D" text-anchor="start" dominant-baseline="central" transform="rotate(90,232.7273,369)">Hannah Whitcombe</text>
<text x="26" y="369" font-family="Georgia, 'Iowan Old Style', serif" font-size="3" fill="#22201D" text-anchor="start" dominant-baseline="central" transform="rotate(90,26,369)">Esther Threlfall</text>
<text x="387.7727" y="369" font-family="Georgia, 'Iowan Old Style', serif" font-size="3" fill="#22201D" text-anchor="start" dominant-baseline="central" transform="rotate(90,387.7727,369)">Sarah Ashworth</text>
<text x="1059.6364" y="369" font-family="Georgia, 'Iowan Old Style', serif" font-size="3" fill="#22201D" text-anchor="start" dominant-baseline="central" transform="rotate(90,1059.6364,369)">Hannah Ashworth</text>
<text x="181.0455" y="369" font-family="Georgia, 'Iowan Old Style', serif" font-size="3" fill="#22201D" text-anchor="start" dominant-baseline="central" transform="rotate(90,181.0455,369)">Alice Boyce</text>
<text x="646.1818" y="369" font-family="Georgia, 'Iowan Old Style', serif" font-size="3" fill="#22201D" text-anchor="start" dominant-baseline="central" transform="rotate(90,646.1818,369)">Florence Whitcombe</text>
<text x="1111.3182" y="369" font-family="Georgia, 'Iowan Old Style', serif" font-size="3" fill="#22201D" text-anchor="start" dominant-baseline="central" transform="rotate(90,1111.3182,369)">William Ashworth</text>
<text x="129.3636" y="369" font-family="Georgia, 'Iowan Old Style', serif" font-size="3" fill="#22201D" text-anchor="start" dominant-baseline="central" transform="rotate(90,129.3636,369)">Walter Whitcombe</text>
<text x="491.1364" y="369" font-family="Georgia, 'Iowan Old Style', serif" font-size="3" fill="#22201D" text-anchor="start" dominant-baseline="central" transform="rotate(90,491.1364,369)">Samuel Ashworth</text>
<text x="1163" y="369" font-family="Georgia, 'Iowan Old Style', serif" font-size="3" fill="#22201D" text-anchor="start" dominant-baseline="central" transform="rotate(90,1163,369)">Beatrice Ashworth</text>
<text x="542.8182" y="369" font-family="Georgia, 'Iowan Old Style', serif" font-size="3" fill="#22201D" text-anchor="start" dominant-baseline="central" transform="rotate(90,542.8182,369)">Winifred Oakley</text>
<text x="594.5" y="369" font-family="Georgia, 'Iowan Old Style', serif" font-size="3" fill="#22201D" text-anchor="start" dominant-baseline="central" transform="rotate(90,594.5,369)">Frederick Ashworth</text>
<text x="749.5455" y="369" font-family="Georgia, 'Iowan Old Style', serif" font-size="3" fill="#22201D" text-anchor="start" dominant-baseline="central" transform="rotate(90,749.5455,369)">Charlotte Ashworth</text>
<text x="439.4545" y="369" font-family="Georgia, 'Iowan Old Style', serif" font-size="3" fill="#22201D" text-anchor="start" dominant-baseline="central" transform="rotate(90,439.4545,369)">Ernest Vasey</text>
<text x="904.5909" y="369" font-family="Georgia, 'Iowan Old Style', serif" font-size="3" fill="#22201D" text-anchor="start" dominant-baseline="central" transform="rotate(90,904.5909,369)">Charlotte Ashworth</text>
<text x="852.9091" y="369" font-family="Georgia, 'Iowan Old Style', serif" font-size="3" fill="#22201D" text-anchor="start" dominant-baseline="central" transform="rotate(90,852.9091,369)">Thomas Vasey</text>
<text x="697.8636" y="369" font-family="Georgia, 'Iowan Old Style', serif" font-size="3" fill="#22201D" text-anchor="start" dominant-baseline="central" transform="rotate(90,697.8636,369)">Mary Ashworth</text>
<text x="801.2273" y="369" font-family="Georgia, 'Iowan Old Style', serif" font-size="3" fill="#22201D" text-anchor="start" dominant-baseline="central" transform="rotate(90,801.2273,369)">Reuben Ashworth</text>
<text x="956.2727" y="369" font-family="Georgia, 'Iowan Old Style', serif" font-size="3" fill="#22201D" text-anchor="start" dominant-baseline="central" transform="rotate(90,956.2727,369)">Winifred Threlfall</text>
<path d="M77.6818,366A77.5227,77.5227 0 0,1 232.7273,366" fill="none" stroke="#A3392B" stroke-width="0.9" stroke-linecap="round" stroke-linejoin="round"/>
<path d="M801.2273,366A180.8864,150 0 0,1 1163,366" fill="none" stroke="#A3392B" stroke-width="0.9" stroke-linecap="round" stroke-linejoin="round"/>
<path d="M284.4091,366A258.4091,150 0 0,1 801.2273,366" fill="none" stroke="#A3392B" stroke-width="0.9" stroke-linecap="round" stroke-linejoin="round"/>
<text x="594.5" y="24" font-family="Georgia, 'Iowan Old Style', serif" font-size="6.6" fill="#22201D" text-anchor="middle" dominant-baseline="central" font-weight="600">Sample Family</text>
</g>
</svg>