<?xml version="1.0" encoding="UTF-8"?>
<svg xmlns="http://www.w3.org/2000/svg" xmlns:inkscape="http://www.inkscape.org/namespaces/inkscape" width="1000mm" height="1000mm" viewBox="0 0 1000 1000">
<!-- helix | engine=radial_rings style=panel1m people=31 hash=9e594d964416 -->
<rect x="0" y="0" width="1000" height="1000" fill="#FBF8F2"/>
<g id="GUIDE" inkscape:groupmode="layer" inkscape:label="GUIDE">
<path d="M318.5856,500A181.4144,181.4144 0 1,0 681.4144,500A181.4144,181.4144 0 1,0 318.5856,500Z" fill="none" stroke="#DAD2C2" stroke-width="0.2" stroke-linecap="round" stroke-linejoin="round" stroke-dasharray="1,2.5"/>
<path d="M241.8672,500A258.1328,258.1328 0 1,0 758.1328,500A258.1328,258.1328 0 1,0 241.8672,500Z" fill="none" stroke="#DAD2C2" stroke-width="0.2" stroke-linecap="round" stroke-linejoin="round" stroke-dasharray="1,2.5"/>
<path d="M179.2928,500A320.7072,320.7072 0 1,0 820.7072,500A320.7072,320.7072 0 1,0 179.2928,500Z" fill="none" stroke="#DAD2C2" stroke-width="0.2" stroke-linecap="round" stroke-linejoin="round" stroke-dasharray="1,2.5"/>
<path d="M107.8784,500A392.1216,392.1216 0 1,0 892.1216,500A392.1216,392.1216 0 1,0 107.8784,500Z" fill="none" stroke="#DAD2C2" stroke-width="0.2" stroke-linecap="round" stroke-linejoin="round" stroke-dasharray="1,2.5"/>
</g>
<g id="ENGRAVE" inkscape:groupmode="layer" inkscape:label="ENGRAVE">
<path d="M611.0815,529.7642L675.2329,546.9535" fill="none" stroke="#2A2622" stroke-width="0.6" stroke-linecap="round" stroke-linejoin="round"/>
<path d="M319.9375,548.2476L250.6629,566.8097" fill="none" stroke="#2A2622" stroke-width="0.6" stroke-linecap="round" stroke-linejoin="round"/>
<path d="M445.2916,757.3827L433.3212,813.699" fill="none" stroke="#2A2622" stroke-width="0.6" stroke-linecap="round" stroke-linejoin="round"/>
<path d="M352.132,790.2072L321.9805,849.3829" fill="none" stroke="#2A2622" stroke-width="0.6" stroke-linecap="round" stroke-linejoin="round"/>
<path d="M679.8624,523.6793A181.4144,181.4144 0 0,1 332.3949,569.4243" fill="none" stroke="#2A2622" stroke-width="0.6" stroke-linecap="round" stroke-linejoin="round"/>
<path d="M755.9244,533.6931A258.1328,258.1328 0 0,1 479.7471,757.3371" fill="none" stroke="#2A2622" stroke-width="0.6" stroke-linecap="round" stroke-linejoin="round"/>
<path d="M796.2948,622.7293A320.7072,320.7072 0 0,1 392.9457,802.3119" fill="none" stroke="#2A2622" stroke-width="0.6" stroke-linecap="round" stroke-linejoin="round"/>
<path d="M888.7669,551.1821A392.1216,392.1216 0 0,1 155.3968,687.1043" fill="none" stroke="#2A2622" stroke-width="0.6" stroke-linecap="round" stroke-linejoin="round"/>
<path d="M679.8624,523.6793L684.8196,524.332" fill="none" stroke="#22201D" stroke-width="0.6" stroke-linecap="round" stroke-linejoin="round"/>
<path d="M624.8774,631.5934L628.3192,635.2202" fill="none" stroke="#22201D" stroke-width="0.6" stroke-linecap="round" stroke-linejoin="round" stroke-dasharray="2,1.4" opacity="0.8"/>
<path d="M560.5574,671.0087L562.2264,675.7219" fill="none" stroke="#22201D" stroke-width="0.6" stroke-linecap="round" stroke-linejoin="round" stroke-dasharray="2,1.4" opacity="0.8"/>
<path d="M485.7664,680.8552L485.3741,685.8397" fill="none" stroke="#22201D" stroke-width="0.6" stroke-linecap="round" stroke-linejoin="round"/>
<path d="M413.4365,659.4301L411.0507,663.8242" fill="none" stroke="#22201D" stroke-width="0.6" stroke-linecap="round" stroke-linejoin="round"/>
<path d="M332.3949,569.4243L327.7756,571.3377" fill="none" stroke="#22201D" stroke-width="0.6" stroke-linecap="round" stroke-linejoin="round"/>
<path d="M755.9244,533.6931L760.8817,534.3457" fill="none" stroke="#22201D" stroke-width="0.6" stroke-linecap="round" stroke-linejoin="round"/>
<path d="M720.0944,634.874L724.3576,637.4865" fill="none" stroke="#22201D" stroke-width="0.6" stroke-linecap="round" stroke-linejoin="round" stroke-dasharray="2,1.4" opacity="0.8"/>
<path d="M479.7471,757.3371L479.3548,762.3216" fill="none" stroke="#22201D" stroke-width="0.6" stroke-linecap="round" stroke-linejoin="round"/>
<path d="M646.208,712.734L649.0401,716.8546" fill="none" stroke="#22201D" stroke-width="0.6" stroke-linecap="round" stroke-linejoin="round"/>
<path d="M796.2948,622.7293L800.9142,624.6427" fill="none" stroke="#22201D" stroke-width="0.6" stroke-linecap="round" stroke-linejoin="round"/>
<path d="M720.7603,732.6328L724.202,736.2597" fill="none" stroke="#22201D" stroke-width="0.6" stroke-linecap="round" stroke-linejoin="round"/>
<path d="M392.9457,802.3119L391.2767,807.0251" fill="none" stroke="#22201D" stroke-width="0.6" stroke-linecap="round" stroke-linejoin="round" stroke-dasharray="2,1.4" opacity="0.8"/>
<path d="M607.0543,802.3119L608.7233,807.0251" fill="none" stroke="#22201D" stroke-width="0.6" stroke-linecap="round" stroke-linejoin="round" stroke-dasharray="2,1.4" opacity="0.8"/>
<path d="M888.7669,551.1821L893.7242,551.8348" fill="none" stroke="#22201D" stroke-width="0.6" stroke-linecap="round" stroke-linejoin="round"/>
<path d="M834.3386,704.883L838.6018,707.4955" fill="none" stroke="#22201D" stroke-width="0.6" stroke-linecap="round" stroke-linejoin="round" stroke-dasharray="2,1.4" opacity="0.8"/>
<path d="M722.1001,823.1577L724.9322,827.2783" fill="none" stroke="#22201D" stroke-width="0.6" stroke-linecap="round" stroke-linejoin="round"/>
<path d="M571.4585,885.5555L572.3697,890.4718" fill="none" stroke="#22201D" stroke-width="0.6" stroke-linecap="round" stroke-linejoin="round" stroke-dasharray="2,1.4" opacity="0.8"/>
<path d="M408.461,881.2872L407.2938,886.1491" fill="none" stroke="#22201D" stroke-width="0.6" stroke-linecap="round" stroke-linejoin="round"/>
<path d="M261.2915,811.091L258.2477,815.0577" fill="none" stroke="#22201D" stroke-width="0.6" stroke-linecap="round" stroke-linejoin="round" stroke-dasharray="2,1.4" opacity="0.8"/>
<path d="M155.3968,687.1043L151.0027,689.4901" fill="none" stroke="#22201D" stroke-width="0.6" stroke-linecap="round" stroke-linejoin="round"/>
<path d="M611.0418,514.6189L614.0162,515.0105" fill="none" stroke="#22201D" stroke-width="0.6" stroke-linecap="round" stroke-linejoin="round"/>
<path d="M819.9464,542.1217L822.9207,542.5133" fill="none" stroke="#22201D" stroke-width="0.6" stroke-linecap="round" stroke-linejoin="round"/>
<path d="M603.4745,542.8605L606.2461,544.0086" fill="none" stroke="#22201D" stroke-width="0.6" stroke-linecap="round" stroke-linejoin="round"/>
<path d="M656.3865,595.8338L658.9444,597.4013" fill="none" stroke="#22201D" stroke-width="0.6" stroke-linecap="round" stroke-linejoin="round"/>
<path d="M586.8341,745.212L587.8355,748.0399" fill="none" stroke="#22201D" stroke-width="0.6" stroke-linecap="round" stroke-linejoin="round"/>
<path d="M525.3193,821.7124L525.5547,824.7032" fill="none" stroke="#22201D" stroke-width="0.6" stroke-linecap="round" stroke-linejoin="round"/>
<path d="M413.1659,745.212L412.1645,748.0399" fill="none" stroke="#22201D" stroke-width="0.6" stroke-linecap="round" stroke-linejoin="round"/>
<path d="M317.2166,765.9515L315.5174,768.4238" fill="none" stroke="#22201D" stroke-width="0.6" stroke-linecap="round" stroke-linejoin="round"/>
<path d="M373.7459,633.0441L371.6808,635.2202" fill="none" stroke="#22201D" stroke-width="0.6" stroke-linecap="round" stroke-linejoin="round"/>
<path d="M318.1547,523.9404L315.1804,524.332" fill="none" stroke="#22201D" stroke-width="0.6" stroke-linecap="round" stroke-linejoin="round"/>
<path d="M609.6928,513.3319A110.5,110.5 0 0,1 609.4057,515.513" fill="none" stroke="#2A2622" stroke-width="0.6" stroke-linecap="round" stroke-linejoin="round" stroke-dasharray="0.6,1.2"/>
<path d="M818.6009,540.8351A321.2072,321.2072 0 0,1 818.3138,543.0163" fill="none" stroke="#2A2622" stroke-width="0.6" stroke-linecap="round" stroke-linejoin="round"/>
<path d="M602.5046,541.2682A110.5,110.5 0 0,1 601.6627,543.3007" fill="none" stroke="#2A2622" stroke-width="0.6" stroke-linecap="round" stroke-linejoin="round" stroke-dasharray="0.6,1.2"/>
<path d="M655.6794,594.1104A181.9144,181.9144 0 0,1 654.5299,595.9862" fill="none" stroke="#2A2622" stroke-width="0.6" stroke-linecap="round" stroke-linejoin="round"/>
<path d="M587.3695,743.4286A258.6328,258.6328 0 0,1 585.2957,744.163" fill="none" stroke="#2A2622" stroke-width="0.6" stroke-linecap="round" stroke-linejoin="round"/>
<path d="M526.2981,820.1288A321.2072,321.2072 0 0,1 524.1049,820.3015" fill="none" stroke="#2A2622" stroke-width="0.6" stroke-linecap="round" stroke-linejoin="round"/>
<path d="M414.7043,744.163A258.6328,258.6328 0 0,1 412.6305,743.4286" fill="none" stroke="#2A2622" stroke-width="0.6" stroke-linecap="round" stroke-linejoin="round"/>
<path d="M318.9738,765.3368A321.2072,321.2072 0 0,1 317.1608,764.0907" fill="none" stroke="#2A2622" stroke-width="0.6" stroke-linecap="round" stroke-linejoin="round"/>
<path d="M375.5786,632.7108A181.9144,181.9144 0 0,1 373.9828,631.1964" fill="none" stroke="#2A2622" stroke-width="0.6" stroke-linecap="round" stroke-linejoin="round"/>
<path d="M319.7888,524.8347A181.9144,181.9144 0 0,1 319.5016,522.6536" fill="none" stroke="#2A2622" stroke-width="0.6" stroke-linecap="round" stroke-linejoin="round"/>
<path d="M609.0589,514.3579L614.0162,515.0105" fill="none" stroke="#2A2622" stroke-width="0.9" stroke-linecap="round" stroke-linejoin="round"/>
<path d="M601.6267,542.0952L606.2461,544.0086" fill="none" stroke="#2A2622" stroke-width="0.9" stroke-linecap="round" stroke-linejoin="round"/>
<path d="M612.8264,514.8539A113.8,113.8 0 0,1 605.1375,543.5494" fill="none" stroke="#2A2622" stroke-width="0.96" stroke-linecap="round" stroke-linejoin="round"/>
<path d="M657.9212,596.7743A185.2144,185.2144 0 0,1 627.4932,634.3498" fill="none" stroke="#2A2622" stroke-width="0.96" stroke-linecap="round" stroke-linejoin="round"/>
<path d="M328.8842,570.8785A185.2144,185.2144 0 0,1 316.3701,524.1753" fill="none" stroke="#2A2622" stroke-width="0.96" stroke-linecap="round" stroke-linejoin="round"/>
<path d="M411.6233,662.7696A185.2144,185.2144 0 0,1 372.5068,634.3498" fill="none" stroke="#2A2622" stroke-width="0.96" stroke-linecap="round" stroke-linejoin="round"/>
<path d="M648.3604,715.8657A261.9328,261.9328 0 0,1 587.435,746.9087" fill="none" stroke="#2A2622" stroke-width="0.96" stroke-linecap="round" stroke-linejoin="round"/>
<path d="M479.449,761.1253A261.9328,261.9328 0 0,1 412.565,746.9087" fill="none" stroke="#2A2622" stroke-width="0.96" stroke-linecap="round" stroke-linejoin="round"/>
<path d="M821.731,542.3567A324.5072,324.5072 0 0,1 799.8056,624.1835" fill="none" stroke="#2A2622" stroke-width="0.96" stroke-linecap="round" stroke-linejoin="round"/>
<path d="M391.6773,805.894A324.5072,324.5072 0 0,1 316.1971,767.4349" fill="none" stroke="#2A2622" stroke-width="0.96" stroke-linecap="round" stroke-linejoin="round"/>
<path d="M608.3227,805.894A324.5072,324.5072 0 0,1 525.4605,823.5069" fill="none" stroke="#2A2622" stroke-width="0.96" stroke-linecap="round" stroke-linejoin="round"/>
<text x="617.4585" y="515.4637" font-family="'Iowan Old Style',Georgia,serif" font-size="3.4" fill="#22201D" text-anchor="middle" dominant-baseline="central" transform="rotate(277.5,617.4585,515.4637)">Arthur William Pargeter</text>
<text x="620.9087" y="515.9179" font-family="'Iowan Old Style',Georgia,serif" font-size="2.6" fill="#6E675C" text-anchor="middle" dominant-baseline="central" transform="rotate(277.5,620.9087,515.9179)">1692–1747</text>
<text x="623.8989" y="516.3116" font-family="'Iowan Old Style',Georgia,serif" font-size="2.6" fill="#8A8073" text-anchor="middle" dominant-baseline="central" transform="rotate(277.5,623.8989,516.3116)">Trowbridge</text>
<text x="608.7499" y="541.7816" font-family="'Iowan Old Style',Georgia,serif" font-size="3.4" fill="#22201D" text-anchor="start" dominant-baseline="central" transform="rotate(21.0167,608.7499,541.7816)">Lydia Brayfield</text>
<text x="607.4535" y="545.0109" font-family="'Iowan Old Style',Georgia,serif" font-size="2.6" fill="#6E675C" text-anchor="start" dominant-baseline="central" transform="rotate(22.7282,607.4535,545.0109)">1695–1796</text>
<text x="606.2524" y="547.7774" font-family="'Iowan Old Style',Georgia,serif" font-size="2.6" fill="#8A8073" text-anchor="start" dominant-baseline="central" transform="rotate(24.2115,606.2524,547.7774)">Bathwick</text>
<text x="688.2619" y="524.7851" font-family="'Iowan Old Style',Georgia,serif" font-size="3.4" fill="#22201D" text-anchor="middle" dominant-baseline="central" transform="rotate(277.5,688.2619,524.7851)">Susannah Winifred Pargeter</text>
<text x="691.7121" y="525.2394" font-family="'Iowan Old Style',Georgia,serif" font-size="2.6" fill="#6E675C" text-anchor="middle" dominant-baseline="central" transform="rotate(277.5,691.7121,525.2394)">1715–1759</text>
<text x="694.7023" y="525.633" font-family="'Iowan Old Style',Georgia,serif" font-size="2.6" fill="#8A8073" text-anchor="middle" dominant-baseline="central" transform="rotate(277.5,694.7023,525.633)">Chippenham</text>
<text x="661.9048" y="599.2154" font-family="'Iowan Old Style',Georgia,serif" font-size="3.4" fill="#22201D" text-anchor="middle" dominant-baseline="central" transform="rotate(301.5,661.9048,599.2154)">Alice Dunmore</text>
<text x="664.872" y="601.0337" font-family="'Iowan Old Style',Georgia,serif" font-size="2.6" fill="#6E675C" text-anchor="middle" dominant-baseline="central" transform="rotate(301.5,664.872,601.0337)">1719–1803</text>
<text x="667.4435" y="602.6095" font-family="'Iowan Old Style',Georgia,serif" font-size="2.6" fill="#8A8073" text-anchor="middle" dominant-baseline="central" transform="rotate(301.5,667.4435,602.6095)">Trowbridge</text>
<text x="630.7092" y="637.7387" font-family="'Iowan Old Style',Georgia,serif" font-size="3.4" fill="#22201D" text-anchor="middle" dominant-baseline="central" transform="rotate(316.5,630.7092,637.7387)">Nathaniel Pargeter</text>
<text x="633.1046" y="640.263" font-family="'Iowan Old Style',Georgia,serif" font-size="2.6" fill="#6E675C" text-anchor="middle" dominant-baseline="central" transform="rotate(316.5,633.1046,640.263)">1718–1766</text>
<text x="635.1807" y="642.4508" font-family="'Iowan Old Style',Georgia,serif" font-size="2.6" fill="#8A8073" text-anchor="middle" dominant-baseline="central" transform="rotate(316.5,635.1807,642.4508)">Bathwick</text>
<text x="563.3854" y="678.9948" font-family="'Iowan Old Style',Georgia,serif" font-size="3.4" fill="#22201D" text-anchor="middle" dominant-baseline="central" transform="rotate(340.5,563.3854,678.9948)">Reuben Pargeter</text>
<text x="564.547" y="682.2752" font-family="'Iowan Old Style',Georgia,serif" font-size="2.6" fill="#6E675C" text-anchor="middle" dominant-baseline="central" transform="rotate(340.5,564.547,682.2752)">1723–1728</text>
<text x="565.5538" y="685.1182" font-family="'Iowan Old Style',Georgia,serif" font-size="2.6" fill="#8A8073" text-anchor="middle" dominant-baseline="central" transform="rotate(340.5,565.5538,685.1182)">Keynsham</text>
<text x="485.1017" y="689.301" font-family="'Iowan Old Style',Georgia,serif" font-size="3.4" fill="#22201D" text-anchor="middle" dominant-baseline="central" transform="rotate(4.5,485.1017,689.301)">Winifred Pargeter</text>
<text x="484.8286" y="692.7703" font-family="'Iowan Old Style',Georgia,serif" font-size="2.6" fill="#6E675C" text-anchor="middle" dominant-baseline="central" transform="rotate(4.5,484.8286,692.7703)">1724–1795</text>
<text x="484.592" y="695.777" font-family="'Iowan Old Style',Georgia,serif" font-size="2.6" fill="#8A8073" text-anchor="middle" dominant-baseline="central" transform="rotate(4.5,484.592,695.777)">Bristol</text>
<text x="409.394" y="666.8754" font-family="'Iowan Old Style',Georgia,serif" font-size="3.4" fill="#22201D" text-anchor="middle" dominant-baseline="central" transform="rotate(28.5,409.394,666.8754)">Frederick Pargeter</text>
<text x="407.7335" y="669.9337" font-family="'Iowan Old Style',Georgia,serif" font-size="2.6" fill="#6E675C" text-anchor="middle" dominant-baseline="central" transform="rotate(28.5,407.7335,669.9337)">1730–1823</text>
<text x="406.2944" y="672.5842" font-family="'Iowan Old Style',Georgia,serif" font-size="2.6" fill="#8A8073" text-anchor="middle" dominant-baseline="central" transform="rotate(28.5,406.2944,672.5842)">Bradford-on-Avon</text>
<text x="369.2908" y="637.7387" font-family="'Iowan Old Style',Georgia,serif" font-size="3.4" fill="#22201D" text-anchor="middle" dominant-baseline="central" transform="rotate(43.5,369.2908,637.7387)">Edith Brayfield</text>
<text x="366.8954" y="640.263" font-family="'Iowan Old Style',Georgia,serif" font-size="2.6" fill="#6E675C" text-anchor="middle" dominant-baseline="central" transform="rotate(43.5,366.8954,640.263)">1823</text>
<text x="324.5678" y="572.6664" font-family="'Iowan Old Style',Georgia,serif" font-size="3.4" fill="#22201D" text-anchor="middle" dominant-baseline="central" transform="rotate(67.5,324.5678,572.6664)">Joseph Pargeter</text>
<text x="321.3527" y="573.9981" font-family="'Iowan Old Style',Georgia,serif" font-size="2.6" fill="#6E675C" text-anchor="middle" dominant-baseline="central" transform="rotate(67.5,321.3527,573.9981)">1796</text>
<text x="311.7381" y="524.7851" font-family="'Iowan Old Style',Georgia,serif" font-size="3.4" fill="#22201D" text-anchor="middle" dominant-baseline="central" transform="rotate(82.5,311.7381,524.7851)">Florence Cadogan</text>
<text x="308.2879" y="525.2394" font-family="'Iowan Old Style',Georgia,serif" font-size="2.6" fill="#6E675C" text-anchor="middle" dominant-baseline="central" transform="rotate(82.5,308.2879,525.2394)">1724–1801</text>
<text x="305.2977" y="525.633" font-family="'Iowan Old Style',Georgia,serif" font-size="2.6" fill="#8A8073" text-anchor="middle" dominant-baseline="central" transform="rotate(82.5,305.2977,525.633)">Walcot</text>
<text x="764.324" y="534.7989" font-family="'Iowan Old Style',Georgia,serif" font-size="3.4" fill="#22201D" text-anchor="middle" dominant-baseline="central" transform="rotate(277.5,764.324,534.7989)">Mary Pargeter</text>
<text x="767.7742" y="535.2531" font-family="'Iowan Old Style',Georgia,serif" font-size="2.6" fill="#6E675C" text-anchor="middle" dominant-baseline="central" transform="rotate(277.5,767.7742,535.2531)">1747–1810</text>
<text x="727.318" y="639.3006" font-family="'Iowan Old Style',Georgia,serif" font-size="3.4" fill="#22201D" text-anchor="middle" dominant-baseline="central" transform="rotate(301.5,727.318,639.3006)">William Pargeter</text>
<text x="730.2851" y="641.1189" font-family="'Iowan Old Style',Georgia,serif" font-size="2.6" fill="#6E675C" text-anchor="middle" dominant-baseline="central" transform="rotate(301.5,730.2851,641.1189)">1748–1795</text>
<text x="651.0066" y="719.716" font-family="'Iowan Old Style',Georgia,serif" font-size="3.4" fill="#22201D" text-anchor="middle" dominant-baseline="central" transform="rotate(325.5,651.0066,719.716)">Albert Pargeter</text>
<text x="652.9777" y="722.584" font-family="'Iowan Old Style',Georgia,serif" font-size="2.6" fill="#6E675C" text-anchor="middle" dominant-baseline="central" transform="rotate(325.5,652.9777,722.584)">1835</text>
<text x="588.9945" y="751.3127" font-family="'Iowan Old Style',Georgia,serif" font-size="3.4" fill="#22201D" text-anchor="middle" dominant-baseline="central" transform="rotate(340.5,588.9945,751.3127)">Sarah Rennick</text>
<text x="590.1562" y="754.5931" font-family="'Iowan Old Style',Georgia,serif" font-size="2.6" fill="#6E675C" text-anchor="middle" dominant-baseline="central" transform="rotate(340.5,590.1562,754.5931)">1748–1748</text>
<text x="479.0824" y="765.7829" font-family="'Iowan Old Style',Georgia,serif" font-size="3.4" fill="#22201D" text-anchor="middle" dominant-baseline="central" transform="rotate(4.5,479.0824,765.7829)">Frederick Pargeter</text>
<text x="478.8094" y="769.2522" font-family="'Iowan Old Style',Georgia,serif" font-size="2.6" fill="#6E675C" text-anchor="middle" dominant-baseline="central" transform="rotate(4.5,478.8094,769.2522)">1752–1806</text>
<text x="411.0055" y="751.3127" font-family="'Iowan Old Style',Georgia,serif" font-size="3.4" fill="#22201D" text-anchor="middle" dominant-baseline="central" transform="rotate(19.5,411.0055,751.3127)">Sarah Boyce</text>
<text x="409.8438" y="754.5931" font-family="'Iowan Old Style',Georgia,serif" font-size="2.6" fill="#6E675C" text-anchor="middle" dominant-baseline="central" transform="rotate(19.5,409.8438,754.5931)">1757–1834</text>
<text x="826.363" y="542.9665" font-family="'Iowan Old Style',Georgia,serif" font-size="3.4" fill="#22201D" text-anchor="middle" dominant-baseline="central" transform="rotate(277.5,826.363,542.9665)">Hannah Threlfall</text>
<text x="829.8133" y="543.4207" font-family="'Iowan Old Style',Georgia,serif" font-size="2.6" fill="#6E675C" text-anchor="middle" dominant-baseline="central" transform="rotate(277.5,829.8133,543.4207)">1783–1832</text>
<text x="804.1219" y="625.9714" font-family="'Iowan Old Style',Georgia,serif" font-size="3.4" fill="#22201D" text-anchor="middle" dominant-baseline="central" transform="rotate(292.5,804.1219,625.9714)">Walter Ernest Pargeter</text>
<text x="807.337" y="627.3032" font-family="'Iowan Old Style',Georgia,serif" font-size="2.6" fill="#6E675C" text-anchor="middle" dominant-baseline="central" transform="rotate(292.5,807.337,627.3032)">1779–1832</text>
<text x="726.592" y="738.7782" font-family="'Iowan Old Style',Georgia,serif" font-size="3.4" fill="#22201D" text-anchor="middle" dominant-baseline="central" transform="rotate(316.5,726.592,738.7782)">Frederick Pargeter</text>
<text x="728.9875" y="741.3025" font-family="'Iowan Old Style',Georgia,serif" font-size="2.6" fill="#6E675C" text-anchor="middle" dominant-baseline="central" transform="rotate(316.5,728.9875,741.3025)">1781–1841</text>
<text x="609.8823" y="810.298" font-family="'Iowan Old Style',Georgia,serif" font-size="3.4" fill="#22201D" text-anchor="middle" dominant-baseline="central" transform="rotate(340.5,609.8823,810.298)">Ann Pargeter</text>
<text x="611.0439" y="813.5784" font-family="'Iowan Old Style',Georgia,serif" font-size="2.6" fill="#6E675C" text-anchor="middle" dominant-baseline="central" transform="rotate(340.5,611.0439,813.5784)">1782–1786</text>
<text x="525.8271" y="828.1645" font-family="'Iowan Old Style',Georgia,serif" font-size="3.4" fill="#22201D" text-anchor="middle" dominant-baseline="central" transform="rotate(355.5,525.8271,828.1645)">Joseph Kentish</text>
<text x="526.1001" y="831.6337" font-family="'Iowan Old Style',Georgia,serif" font-size="2.6" fill="#6E675C" text-anchor="middle" dominant-baseline="central" transform="rotate(355.5,526.1001,831.6337)">1784–1853</text>
<text x="390.1177" y="810.298" font-family="'Iowan Old Style',Georgia,serif" font-size="3.4" fill="#22201D" text-anchor="middle" dominant-baseline="central" transform="rotate(19.5,390.1177,810.298)">Samuel William Pargeter</text>
<text x="388.9561" y="813.5784" font-family="'Iowan Old Style',Georgia,serif" font-size="2.6" fill="#6E675C" text-anchor="middle" dominant-baseline="central" transform="rotate(19.5,388.9561,813.5784)">1781–1874</text>
<text x="313.5508" y="771.2852" font-family="'Iowan Old Style',Georgia,serif" font-size="3.4" fill="#22201D" text-anchor="middle" dominant-baseline="central" transform="rotate(34.5,313.5508,771.2852)">Hannah Cadogan</text>
<text x="311.5798" y="774.1532" font-family="'Iowan Old Style',Georgia,serif" font-size="2.6" fill="#6E675C" text-anchor="middle" dominant-baseline="central" transform="rotate(34.5,311.5798,774.1532)">1834</text>
<text x="897.1665" y="552.288" font-family="'Iowan Old Style',Georgia,serif" font-size="3.4" fill="#22201D" text-anchor="middle" dominant-baseline="central" transform="rotate(277.5,897.1665,552.288)">Thomas Pargeter</text>
<text x="900.6167" y="552.7422" font-family="'Iowan Old Style',Georgia,serif" font-size="2.6" fill="#6E675C" text-anchor="middle" dominant-baseline="central" transform="rotate(277.5,900.6167,552.7422)">1810–1870</text>
<text x="841.5622" y="709.3096" font-family="'Iowan Old Style',Georgia,serif" font-size="3.4" fill="#22201D" text-anchor="middle" dominant-baseline="central" transform="rotate(301.5,841.5622,709.3096)">Sarah Pargeter</text>
<text x="844.5294" y="711.1279" font-family="'Iowan Old Style',Georgia,serif" font-size="2.6" fill="#6E675C" text-anchor="middle" dominant-baseline="central" transform="rotate(301.5,844.5294,711.1279)">1811–1862</text>
<text x="726.8987" y="830.1397" font-family="'Iowan Old Style',Georgia,serif" font-size="3.4" fill="#22201D" text-anchor="middle" dominant-baseline="central" transform="rotate(325.5,726.8987,830.1397)">Clara Hannah Pargeter</text>
<text x="728.8698" y="833.0076" font-family="'Iowan Old Style',Georgia,serif" font-size="2.6" fill="#6E675C" text-anchor="middle" dominant-baseline="central" transform="rotate(325.5,728.8698,833.0076)">1815–1855</text>
<text x="573.0024" y="893.8856" font-family="'Iowan Old Style',Georgia,serif" font-size="3.4" fill="#22201D" text-anchor="middle" dominant-baseline="central" transform="rotate(349.5,573.0024,893.8856)">Clara Pargeter</text>
<text x="573.6366" y="897.3074" font-family="'Iowan Old Style',Georgia,serif" font-size="2.6" fill="#6E675C" text-anchor="middle" dominant-baseline="central" transform="rotate(349.5,573.6366,897.3074)">1816–1818</text>
<text x="406.4833" y="889.5252" font-family="'Iowan Old Style',Georgia,serif" font-size="3.4" fill="#22201D" text-anchor="middle" dominant-baseline="central" transform="rotate(13.5,406.4833,889.5252)">Alice Hannah Pargeter</text>
<text x="405.6709" y="892.909" font-family="'Iowan Old Style',Georgia,serif" font-size="2.6" fill="#6E675C" text-anchor="middle" dominant-baseline="central" transform="rotate(13.5,405.6709,892.909)">1819–1821</text>
<text x="256.1341" y="817.8123" font-family="'Iowan Old Style',Georgia,serif" font-size="3.4" fill="#22201D" text-anchor="middle" dominant-baseline="central" transform="rotate(37.5,256.1341,817.8123)">Percy Pargeter</text>
<text x="254.0156" y="820.5731" font-family="'Iowan Old Style',Georgia,serif" font-size="2.6" fill="#6E675C" text-anchor="middle" dominant-baseline="central" transform="rotate(37.5,254.0156,820.5731)">1822–1827</text>
<text x="147.9515" y="691.1467" font-family="'Iowan Old Style',Georgia,serif" font-size="3.4" fill="#22201D" text-anchor="middle" dominant-baseline="central" transform="rotate(61.5,147.9515,691.1467)">Beatrice Pargeter</text>
<text x="144.8932" y="692.8073" font-family="'Iowan Old Style',Georgia,serif" font-size="2.6" fill="#6E675C" text-anchor="middle" dominant-baseline="central" transform="rotate(61.5,144.8932,692.8073)">1828–1896</text>
<path d="M40,915.392L49,915.392" fill="none" stroke="#2A2622" stroke-width="0.6" stroke-linecap="round" stroke-linejoin="round"/>
<text x="52" y="915.392" font-family="'Iowan Old Style',Georgia,serif" font-size="2.788" fill="#2A2622" text-anchor="start" dominant-baseline="central">Descent, and a recorded marriage</text>
<path d="M40,920.968L49,920.968" fill="none" stroke="#2A2622" stroke-width="0.6" stroke-linecap="round" stroke-linejoin="round" stroke-dasharray="1.6,1.4"/>
<text x="52" y="920.968" font-family="'Iowan Old Style',Georgia,serif" font-size="2.788" fill="#2A2622" text-anchor="start" dominant-baseline="central">Unmarried or unrecorded union</text>
<path d="M40,926.544L49,926.544" fill="none" stroke="#2A2622" stroke-width="0.6" stroke-linecap="round" stroke-linejoin="round" stroke-dasharray="3,2"/>
<text x="52" y="926.544" font-family="'Iowan Old Style',Georgia,serif" font-size="2.788" fill="#2A2622" text-anchor="start" dominant-baseline="central">Joins half-siblings — one parent shared</text>
<circle cx="44" cy="932.12" r="1.02" fill="none" stroke="#2A2622" stroke-width="0.48" stroke-linecap="round" stroke-linejoin="round" stroke-dasharray="0.8,1.6"/>
<text x="52" y="932.12" font-family="'Iowan Old Style',Georgia,serif" font-size="2.788" fill="#2A2622" text-anchor="start" dominant-baseline="central">Parent not recorded</text>
<path d="M40,937.696L49,937.696" fill="none" stroke="#2A2622" stroke-width="0.6" stroke-linecap="round" stroke-linejoin="round"/>
<text x="52" y="937.696" font-family="'Iowan Old Style',Georgia,serif" font-size="2.788" fill="#2A2622" text-anchor="start" dominant-baseline="central">Line ends here by choice — not my family</text>
<path d="M40,943.272L49,943.272" fill="none" stroke="#2A2622" stroke-width="0.6" stroke-linecap="round" stroke-linejoin="round" stroke-dasharray="0.6,1.2"/>
<text x="52" y="943.272" font-family="'Iowan Old Style',Georgia,serif" font-size="2.788" fill="#2A2622" text-anchor="start" dominant-baseline="central">Line ends here for now — still to research</text>
<path d="M40,948.848L49,948.848" fill="none" stroke="#2A2622" stroke-width="0.6" stroke-linecap="round" stroke-linejoin="round" stroke-dasharray="2,1.4"/>
<text x="52" y="948.848" font-family="'Iowan Old Style',Georgia,serif" font-size="2.788" fill="#2A2622" text-anchor="start" dominant-baseline="central">Uncertain — not yet proved</text>
<text x="500" y="500" font-family="'Iowan Old Style',Georgia,serif" font-size="7.48" fill="#2A2622" text-anchor="middle" dominant-baseline="central" font-weight="600">Sample Family</text>
</g>
<g id="ENGRAVE_DEEP" inkscape:groupmode="layer" inkscape:label="ENGRAVE_DEEP">
<path d="M327.7756,571.3377L261.5164,598.7831L263.5771,603.6184L265.7359,608.4106L267.9918,613.158L270.3439,617.8584L272.7912,622.5099L275.3326,627.1107L277.9673,631.6587L280.694,636.1522L283.5116,640.5892L286.419,644.9679L289.4149,649.2865L292.4982,653.5433L295.6675,657.7363L298.9214,661.864L302.2588,665.9246L305.6781,669.9163L309.1781,673.8376L312.7571,677.6869L316.4137,681.4625L320.1465,685.1628L323.9539,688.7864L327.8342,692.3317L331.7859,695.7972L335.8073,699.1816L339.8969,702.4834L344.0528,705.7013L348.2733,708.8338L352.5568,711.8798L356.9014,714.8379L361.3053,717.707L365.7668,720.4858L370.2839,723.1732L374.8547,725.768L379.4775,728.2693L384.1502,730.6759L388.871,732.9869L393.6378,735.2012L398.4487,737.3181L403.3018,739.3366L408.1949,741.2558L413.1261,743.075L418.0933,744.7934L423.0944,746.4104L428.1275,747.9252L433.1903,749.3371L438.2809,750.6457L443.397,751.8504L448.5366,752.9507L453.6975,753.9461L458.8777,754.8362L464.0749,755.6207L469.2869,756.2991L474.5118,756.8714L479.7471,757.3371L479.3548,762.3216" fill="none" stroke="#9B3A2E" stroke-width="1.1" stroke-linecap="round" stroke-linejoin="round"/>
<path d="M479.3548,762.3216L474.8376,819.7186L468.4045,819.147L461.9842,818.4461L455.5794,817.616L449.1925,816.6571L442.8263,815.5698L436.4833,814.3545L430.166,813.0117L423.877,811.542L417.6189,809.9459L411.3942,808.2241L405.2054,806.3774L399.0551,804.4064L392.9457,802.3119L391.2767,807.0251" fill="none" stroke="#9B3A2E" stroke-width="1.1" stroke-linecap="round" stroke-linejoin="round"/>
<path d="M391.2767,807.0251L369.1071,869.6301L361.6083,866.8884L354.1669,863.9946L346.7859,860.9498L339.4684,857.7555L332.2175,854.4127L325.0362,850.9231L317.9274,847.2879L310.8941,843.5088L303.9392,839.5873L297.0656,835.5249L290.2761,831.3235L283.5736,826.9846L276.9608,822.5103L270.4405,817.9021L264.0153,813.1622L257.688,808.2925L251.4612,803.2949L245.3374,798.1716L239.3192,792.9247L233.4091,787.5563L227.6094,782.0687L221.9228,776.4641L216.3514,770.7449L210.8976,764.9135L205.5637,758.9722L200.3519,752.9236L195.2643,746.7701L190.303,740.5143L185.4702,734.1588L180.7677,727.7062L176.1976,721.1592L171.7618,714.5204L167.462,707.7928L163.3001,700.979L159.2779,694.0819L155.3968,687.1043L151.0027,689.4901" fill="none" stroke="#9B3A2E" stroke-width="1.1" stroke-linecap="round" stroke-linejoin="round"/>
<path d="M614.0162,515.0105L679.8624,523.6793L679.3491,527.2964L678.763,530.9025L678.1045,534.4959L677.3737,538.0755L676.571,541.6395L675.6967,545.1867L674.7512,548.7155L673.7348,552.2246L672.6479,555.7126L671.491,559.1779L670.2646,562.6192L668.9691,566.0351L667.6051,569.4243L666.1731,572.7853L664.6737,576.1168L663.1075,579.4174L661.4752,582.6858L659.7774,585.9206L658.0148,589.1207L656.1882,592.2845L654.2982,595.411L652.3456,598.4988L650.3312,601.5466L648.2559,604.5532L646.1204,607.5175L643.9257,610.4381L641.6726,613.3139L639.3621,616.1438L636.995,618.9266L634.5724,621.6612L632.0953,624.3464L629.5645,626.9812L626.9812,629.5645L624.3464,632.0953L621.6612,634.5724L618.9266,636.995L616.1438,639.3621L613.3139,641.6726L610.4381,643.9257L607.5175,646.1204L604.5532,648.2559L601.5466,650.3312L598.4988,652.3456L595.411,654.2982L592.2845,656.1882L589.1207,658.0148L585.9206,659.7774L582.6858,661.4752L579.4174,663.1075L576.1168,664.6737L572.7853,666.1731L569.4243,667.6051L566.0351,668.9691L562.6192,670.2646L559.1779,671.491L555.7126,672.6479L552.2246,673.7348L548.7155,674.7512L545.1867,675.6967L541.6395,676.571L538.0755,677.3737L534.4959,678.1045L530.9025,678.763L527.2964,679.3491L523.6793,679.8624L520.0526,680.3027L516.4178,680.67L512.7763,680.9639L509.1296,681.1845L505.4793,681.3316L501.8267,681.4052L498.1733,681.4052L494.5207,681.3316L490.8704,681.1845L487.2237,680.9639L483.5822,680.67L479.9474,680.3027L476.3207,679.8624L472.7036,679.3491L469.0975,678.763L465.5041,678.1045L461.9245,677.3737L458.3605,676.571L454.8133,675.6967L451.2845,674.7512L447.7754,673.7348L444.2874,672.6479L440.8221,671.491L437.3808,670.2646L433.9649,668.9691L430.5757,667.6051L427.2147,666.1731L423.8832,664.6737L420.5826,663.1075L417.3142,661.4752L414.0794,659.7774L410.8793,658.0148L407.7155,656.1882L404.589,654.2982L401.5012,652.3456L398.4534,650.3312L395.4468,648.2559L392.4825,646.1204L389.5619,643.9257L386.6861,641.6726L383.8562,639.3621L381.0734,636.995L378.3388,634.5724L375.6536,632.0953L373.0188,629.5645L370.4355,626.9812L367.9047,624.3464L365.4276,621.6612L363.005,618.9266L360.6379,616.1438L358.3274,613.3139L356.0743,610.4381L353.8796,607.5175L351.7441,604.5532L349.6688,601.5466L347.6544,598.4988L345.7018,595.411L343.8118,592.2845L341.9852,589.1207L340.2226,585.9206L338.5248,582.6858L336.8925,579.4174L335.3263,576.1168L333.8269,572.7853L332.3949,569.4243L327.7756,571.3377" fill="none" stroke="#9B3A2E" stroke-width="1.1" stroke-linecap="round" stroke-linejoin="round"/>
</g>
</svg>