<?xml version="1.0" encoding="UTF-8"?>
<svg xmlns="http://www.w3.org/2000/svg" xmlns:inkscape="http://www.inkscape.org/namespaces/inkscape" width="372.16mm" height="248.9867mm" viewBox="0 0 372.16 248.9867">
<!-- helix | engine=radial_family style=default people=31 hash=400647c80093 -->
<rect x="0" y="0" width="372.16" height="248.9867" fill="#FBF8F2"/>
<g id="ENGRAVE" inkscape:groupmode="layer" inkscape:label="ENGRAVE">
<path d="M297.0057,76.3302A111.735,111.735 0 0,1 295.0985,87.3951" fill="none" stroke="#22201D" stroke-width="0.24" stroke-linecap="round" stroke-linejoin="round"/>
<path d="M274.5916,96.5645A94.695,94.695 0 0,1 270.7667,105.2777" fill="none" stroke="#22201D" stroke-width="0.24" stroke-linecap="round" stroke-linejoin="round"/>
<path d="M259.8839,146.7977A111.735,111.735 0 0,1 251.0918,153.7812" fill="none" stroke="#22201D" stroke-width="0.24" stroke-linecap="round" stroke-linejoin="round"/>
<path d="M224.918,167.6746A111.735,111.735 0 0,1 214.2072,171.0435" fill="none" stroke="#22201D" stroke-width="0.24" stroke-linecap="round" stroke-linejoin="round"/>
<path d="M200.4791,190.8741A128.775,128.775 0 0,1 187.5633,191.6732" fill="none" stroke="#22201D" stroke-width="0.24" stroke-linecap="round" stroke-linejoin="round"/>
<path d="M184.4004,208.712A145.815,145.815 0 0,1 169.7756,207.8073" fill="none" stroke="#22201D" stroke-width="0.24" stroke-linecap="round" stroke-linejoin="round"/>
<path d="M153.6633,187.5348A128.775,128.775 0 0,1 141.3191,183.6521" fill="none" stroke="#22201D" stroke-width="0.24" stroke-linecap="round" stroke-linejoin="round"/>
<path d="M116.5031,191.0514A145.815,145.815 0 0,1 103.9936,183.4216" fill="none" stroke="#22201D" stroke-width="0.24" stroke-linecap="round" stroke-linejoin="round"/>
<path d="M75.2014,157.606A145.815,145.815 0 0,1 66.257,145.9999" fill="none" stroke="#22201D" stroke-width="0.24" stroke-linecap="round" stroke-linejoin="round"/>
<path d="M289.2202,55.4411L292.8407,55.1791" fill="none" stroke="#22201D" stroke-width="0.4" stroke-linecap="round" stroke-linejoin="round"/>
<path d="M287.9872,80.4725L291.5644,81.0891" fill="none" stroke="#22201D" stroke-width="0.4" stroke-linecap="round" stroke-linejoin="round" stroke-dasharray="2,1.4"/>
<path d="M280.7687,104.4721L284.0925,105.9312" fill="none" stroke="#22201D" stroke-width="0.4" stroke-linecap="round" stroke-linejoin="round" stroke-dasharray="2,1.4"/>
<path d="M267.9886,126.0304L270.8639,128.2462" fill="none" stroke="#22201D" stroke-width="0.4" stroke-linecap="round" stroke-linejoin="round"/>
<path d="M250.3977,143.8811L252.6555,146.7236" fill="none" stroke="#22201D" stroke-width="0.4" stroke-linecap="round" stroke-linejoin="round"/>
<path d="M217.1071,161.5523L218.1963,165.015" fill="none" stroke="#A3392B" stroke-width="0.9" stroke-linecap="round" stroke-linejoin="round"/>
<path d="M248.7997,165.7388L250.6899,168.8378" fill="none" stroke="#22201D" stroke-width="0.4" stroke-linecap="round" stroke-linejoin="round"/>
<path d="M222.2198,177.8072L223.309,181.2699" fill="none" stroke="#22201D" stroke-width="0.4" stroke-linecap="round" stroke-linejoin="round" stroke-dasharray="2,1.4"/>
<path d="M193.5172,183.1269L193.7414,186.75" fill="none" stroke="#22201D" stroke-width="0.4" stroke-linecap="round" stroke-linejoin="round"/>
<path d="M149.9402,177.8072L148.851,181.2699" fill="none" stroke="#A3392B" stroke-width="0.9" stroke-linecap="round" stroke-linejoin="round"/>
<path d="M177.5906,200.1344L177.3665,203.7574" fill="none" stroke="#22201D" stroke-width="0.4" stroke-linecap="round" stroke-linejoin="round"/>
<path d="M144.8275,194.0621L143.7384,197.5248" fill="none" stroke="#22201D" stroke-width="0.4" stroke-linecap="round" stroke-linejoin="round"/>
<path d="M114.4874,180.2864L112.5972,183.3855" fill="none" stroke="#22201D" stroke-width="0.4" stroke-linecap="round" stroke-linejoin="round" stroke-dasharray="2,1.4"/>
<path d="M77.1774,146.8336L74.3021,149.0494" fill="none" stroke="#A3392B" stroke-width="0.9" stroke-linecap="round" stroke-linejoin="round" stroke-dasharray="2,1.4"/>
<path d="M157.601,214.7898L156.932,218.3576" fill="none" stroke="#22201D" stroke-width="0.4" stroke-linecap="round" stroke-linejoin="round"/>
<path d="M121.8993,203.4782L120.3917,206.7804" fill="none" stroke="#22201D" stroke-width="0.4" stroke-linecap="round" stroke-linejoin="round" stroke-dasharray="2,1.4"/>
<path d="M89.9673,183.9103L87.7095,186.7527" fill="none" stroke="#22201D" stroke-width="0.4" stroke-linecap="round" stroke-linejoin="round"/>
<path d="M63.6804,157.2352L60.8052,159.451" fill="none" stroke="#22201D" stroke-width="0.4" stroke-linecap="round" stroke-linejoin="round" stroke-dasharray="2,1.4"/>
<path d="M44.5827,125.0197L41.2588,126.4788" fill="none" stroke="#22201D" stroke-width="0.4" stroke-linecap="round" stroke-linejoin="round"/>
<path d="M33.7957,89.156L30.2185,89.7726" fill="none" stroke="#22201D" stroke-width="0.4" stroke-linecap="round" stroke-linejoin="round" stroke-dasharray="2,1.4"/>
<path d="M31.9532,51.7506L28.3327,51.4885" fill="none" stroke="#A3392B" stroke-width="0.9" stroke-linecap="round" stroke-linejoin="round"/>
<path d="M277.9667,103.2422L280.7687,104.4721" fill="none" stroke="#A3392B" stroke-width="0.9" stroke-linecap="round" stroke-linejoin="round"/>
<path d="M289.2202,55.4411A103.41,103.41 0 0,1 217.1071,161.5523" fill="none" stroke="#A3392B" stroke-width="0.9" stroke-linecap="round" stroke-linejoin="round"/>
<path d="M221.3017,174.8882L222.2198,177.8072" fill="none" stroke="#A3392B" stroke-width="0.9" stroke-linecap="round" stroke-linejoin="round"/>
<path d="M248.7997,165.7388A120.45,120.45 0 0,1 149.9402,177.8072" fill="none" stroke="#A3392B" stroke-width="0.9" stroke-linecap="round" stroke-linejoin="round"/>
<path d="M145.7456,191.1431L144.8275,194.0621" fill="none" stroke="#A3392B" stroke-width="0.9" stroke-linecap="round" stroke-linejoin="round"/>
<path d="M177.5906,200.1344A137.49,137.49 0 0,1 77.1774,146.8336" fill="none" stroke="#A3392B" stroke-width="0.9" stroke-linecap="round" stroke-linejoin="round"/>
<path d="M66.1042,155.3673L63.6804,157.2352" fill="none" stroke="#A3392B" stroke-width="0.9" stroke-linecap="round" stroke-linejoin="round"/>
<path d="M157.601,214.7898A154.53,154.53 0 0,1 31.9532,51.7506" fill="none" stroke="#A3392B" stroke-width="0.9" stroke-linecap="round" stroke-linejoin="round"/>
<text x="270.0829" y="99.7814" font-family="Georgia, 'Iowan Old Style', serif" font-size="3" fill="#22201D" text-anchor="middle" dominant-baseline="central" transform="rotate(-66.3,270.0829,99.7814)">Arthur Pargeter</text>
<text x="274.8626" y="101.8796" font-family="Georgia, 'Iowan Old Style', serif" font-size="3" fill="#22201D" text-anchor="middle" dominant-baseline="central" transform="rotate(-66.3,274.8626,101.8796)">Lydia Brayfield</text>
<text x="294.5762" y="55.0535" font-family="Georgia, 'Iowan Old Style', serif" font-size="3" fill="#22201D" text-anchor="middle" dominant-baseline="central" transform="rotate(-94.14,294.5762,55.0535)">Susannah Pargeter</text>
<text x="293.2791" y="81.3847" font-family="Georgia, 'Iowan Old Style', serif" font-size="3" fill="#22201D" text-anchor="middle" dominant-baseline="central" transform="rotate(-80.22,293.2791,81.3847)">NP</text>
<text x="298.4233" y="82.2714" font-family="Georgia, 'Iowan Old Style', serif" font-size="3" fill="#22201D" text-anchor="middle" dominant-baseline="central" transform="rotate(-80.22,298.4233,82.2714)">Alice Dunmore</text>
<text x="285.6858" y="106.6306" font-family="Georgia, 'Iowan Old Style', serif" font-size="3" fill="#22201D" text-anchor="middle" dominant-baseline="central" transform="rotate(-66.3,285.6858,106.6306)">Reuben Pargeter</text>
<text x="272.2421" y="129.3084" font-family="Georgia, 'Iowan Old Style', serif" font-size="3" fill="#22201D" text-anchor="middle" dominant-baseline="central" transform="rotate(-52.38,272.2421,129.3084)">Winifred Pargeter</text>
<text x="253.7377" y="148.0861" font-family="Georgia, 'Iowan Old Style', serif" font-size="3" fill="#22201D" text-anchor="middle" dominant-baseline="central" transform="rotate(-38.46,253.7377,148.0861)">FP</text>
<text x="256.9844" y="152.1736" font-family="Georgia, 'Iowan Old Style', serif" font-size="3" fill="#22201D" text-anchor="middle" dominant-baseline="central" transform="rotate(-38.46,256.9844,152.1736)">Edith Brayfield</text>
<text x="218.7183" y="166.6748" font-family="Georgia, 'Iowan Old Style', serif" font-size="3" fill="#22201D" text-anchor="middle" dominant-baseline="central" transform="rotate(-17.46,218.7183,166.6748)">Joseph Pargeter</text>
<text x="220.2845" y="171.6543" font-family="Georgia, 'Iowan Old Style', serif" font-size="3" fill="#22201D" text-anchor="middle" dominant-baseline="central" transform="rotate(-17.46,220.2845,171.6543)">Florence Cadogan</text>
<text x="251.5959" y="170.3233" font-family="Georgia, 'Iowan Old Style', serif" font-size="3" fill="#22201D" text-anchor="middle" dominant-baseline="central" transform="rotate(-31.38,251.5959,170.3233)">Mary Pargeter</text>
<text x="223.831" y="182.9298" font-family="Georgia, 'Iowan Old Style', serif" font-size="3" fill="#22201D" text-anchor="middle" dominant-baseline="central" transform="rotate(-17.46,223.831,182.9298)">William Pargeter</text>
<text x="193.8488" y="188.4866" font-family="Georgia, 'Iowan Old Style', serif" font-size="3" fill="#22201D" text-anchor="middle" dominant-baseline="central" transform="rotate(-3.54,193.8488,188.4866)">Albert Pargeter</text>
<text x="194.1711" y="193.6967" font-family="Georgia, 'Iowan Old Style', serif" font-size="3" fill="#22201D" text-anchor="middle" dominant-baseline="central" transform="rotate(-3.54,194.1711,193.6967)">Sarah Rennick</text>
<text x="148.329" y="182.9298" font-family="Georgia, 'Iowan Old Style', serif" font-size="3" fill="#22201D" text-anchor="middle" dominant-baseline="central" transform="rotate(17.46,148.329,182.9298)">Frederick Pargeter</text>
<text x="146.7628" y="187.9093" font-family="Georgia, 'Iowan Old Style', serif" font-size="3" fill="#22201D" text-anchor="middle" dominant-baseline="central" transform="rotate(17.46,146.7628,187.9093)">Sarah Boyce</text>
<text x="177.2591" y="205.4941" font-family="Georgia, 'Iowan Old Style', serif" font-size="3" fill="#22201D" text-anchor="middle" dominant-baseline="central" transform="rotate(3.54,177.2591,205.4941)">Walter Pargeter</text>
<text x="176.9367" y="210.7042" font-family="Georgia, 'Iowan Old Style', serif" font-size="3" fill="#22201D" text-anchor="middle" dominant-baseline="central" transform="rotate(3.54,176.9367,210.7042)">Hannah Threlfall</text>
<text x="143.2163" y="199.1847" font-family="Georgia, 'Iowan Old Style', serif" font-size="3" fill="#22201D" text-anchor="middle" dominant-baseline="central" transform="rotate(17.46,143.2163,199.1847)">Frederick Pargeter</text>
<text x="111.6911" y="184.8709" font-family="Georgia, 'Iowan Old Style', serif" font-size="3" fill="#22201D" text-anchor="middle" dominant-baseline="central" transform="rotate(31.38,111.6911,184.8709)">Ann Pargeter</text>
<text x="108.973" y="189.3274" font-family="Georgia, 'Iowan Old Style', serif" font-size="3" fill="#22201D" text-anchor="middle" dominant-baseline="central" transform="rotate(31.38,108.973,189.3274)">Joseph Kentish</text>
<text x="72.9239" y="150.1115" font-family="Georgia, 'Iowan Old Style', serif" font-size="3" fill="#22201D" text-anchor="middle" dominant-baseline="central" transform="rotate(52.38,72.9239,150.1115)">Samuel Pargeter</text>
<text x="68.7893" y="153.2979" font-family="Georgia, 'Iowan Old Style', serif" font-size="3" fill="#22201D" text-anchor="middle" dominant-baseline="central" transform="rotate(52.38,68.7893,153.2979)">Hannah Cadogan</text>
<text x="156.6113" y="220.0678" font-family="Georgia, 'Iowan Old Style', serif" font-size="3" fill="#22201D" text-anchor="middle" dominant-baseline="central" transform="rotate(10.62,156.6113,220.0678)">Thomas Pargeter</text>
<text x="119.669" y="208.3632" font-family="Georgia, 'Iowan Old Style', serif" font-size="3" fill="#22201D" text-anchor="middle" dominant-baseline="central" transform="rotate(24.54,119.669,208.3632)">Sarah Pargeter</text>
<text x="86.6273" y="188.1152" font-family="Georgia, 'Iowan Old Style', serif" font-size="3" fill="#22201D" text-anchor="middle" dominant-baseline="central" transform="rotate(38.46,86.6273,188.1152)">Clara Pargeter</text>
<text x="59.4269" y="160.5131" font-family="Georgia, 'Iowan Old Style', serif" font-size="3" fill="#22201D" text-anchor="middle" dominant-baseline="central" transform="rotate(52.38,59.4269,160.5131)">Clara Pargeter</text>
<text x="39.6656" y="127.1782" font-family="Georgia, 'Iowan Old Style', serif" font-size="3" fill="#22201D" text-anchor="middle" dominant-baseline="central" transform="rotate(66.3,39.6656,127.1782)">Alice Pargeter</text>
<text x="28.5038" y="90.0682" font-family="Georgia, 'Iowan Old Style', serif" font-size="3" fill="#22201D" text-anchor="middle" dominant-baseline="central" transform="rotate(80.22,28.5038,90.0682)">Percy Pargeter</text>
<text x="26.5972" y="51.3629" font-family="Georgia, 'Iowan Old Style', serif" font-size="3" fill="#22201D" text-anchor="middle" dominant-baseline="central" transform="rotate(94.14,26.5972,51.3629)">Beatrice Pargeter</text>
<text x="186.08" y="32" font-family="Georgia, 'Iowan Old Style', serif" font-size="6.6" fill="#22201D" text-anchor="middle" dominant-baseline="central" font-weight="600">Sample Family</text>
<path d="M 20.000,214.987 L 27.000,214.987" fill="none" stroke="#22201D" stroke-width="0.22" stroke-linecap="round" stroke-linejoin="round"/>
<text x="30" y="215.7427" font-family="sans-serif" font-size="2.16" fill="#22201D" text-anchor="start" dominant-baseline="central">two names in one cell — married</text>
<path d="M 20.000,218.659 L 27.000,218.659" fill="none" stroke="#22201D" stroke-width="0.4" stroke-linecap="round" stroke-linejoin="round"/>
<text x="30" y="219.4147" font-family="sans-serif" font-size="2.16" fill="#22201D" text-anchor="start" dominant-baseline="central">an arc over brothers and sisters</text>
<path d="M 23.500,220.331 L 23.500,224.331" fill="none" stroke="#22201D" stroke-width="0.4" stroke-linecap="round" stroke-linejoin="round"/>
<text x="30" y="223.0867" font-family="sans-serif" font-size="2.16" fill="#22201D" text-anchor="start" dominant-baseline="central">a stem from a couple to their children</text>
<path d="M 20.000,226.003 L 27.000,226.003" fill="none" stroke="#8A6F4E" stroke-width="0.32" stroke-linecap="round" stroke-linejoin="round" stroke-dasharray="1.6,1.2"/>
<text x="30" y="226.7587" font-family="sans-serif" font-size="2.16" fill="#22201D" text-anchor="start" dominant-baseline="central">a marriage between two people already on the chart</text>
</g>
<g id="CUT" inkscape:groupmode="layer" inkscape:label="CUT">
<path d="M14.4696,7H357.6904A7.4696,7.4696 0 0,1 365.16,14.4696V234.5171A7.4696,7.4696 0 0,1 357.6904,241.9867H14.4696A7.4696,7.4696 0 0,1 7,234.5171V14.4696A7.4696,7.4696 0 0,1 14.4696,7Z" fill="none" stroke="#B03A2E" stroke-width="0.05" stroke-linecap="round" stroke-linejoin="round"/>
</g>
</svg>