<?xml version="1.0" encoding="UTF-8"?>
<svg xmlns="http://www.w3.org/2000/svg" xmlns:inkscape="http://www.inkscape.org/namespaces/inkscape" width="841.6mm" height="484.1296mm" viewBox="0 0 841.6 484.1296">
<!-- helix | engine=radial_family style=default people=31 hash=62674ea86feb -->
<rect x="0" y="0" width="841.6" height="484.1296" fill="#FBF8F2"/>
<g id="ENGRAVE" inkscape:groupmode="layer" inkscape:label="ENGRAVE">
<path d="M597.639,102.0808A181.035,181.035 0 0,1 593.3226,118.1896" fill="none" stroke="#22201D" stroke-width="0.24" stroke-linecap="round" stroke-linejoin="round"/>
<path d="M524.6852,113.0139A115.155,115.155 0 0,1 519.6723,122.3629" fill="none" stroke="#22201D" stroke-width="0.24" stroke-linecap="round" stroke-linejoin="round"/>
<path d="M532.3558,205.9093A181.035,181.035 0 0,1 518.7619,215.57" fill="none" stroke="#22201D" stroke-width="0.24" stroke-linecap="round" stroke-linejoin="round"/>
<path d="M479.261,234.6655A181.035,181.035 0 0,1 463.2461,239.3182" fill="none" stroke="#22201D" stroke-width="0.24" stroke-linecap="round" stroke-linejoin="round"/>
<path d="M445.5262,313.7066A251.595,251.595 0 0,1 422.3808,314.9196" fill="none" stroke="#22201D" stroke-width="0.24" stroke-linecap="round" stroke-linejoin="round"/>
<path d="M418.7759,385.4782A322.155,322.155 0 0,1 389.1394,383.925" fill="none" stroke="#22201D" stroke-width="0.24" stroke-linecap="round" stroke-linejoin="round"/>
<path d="M361.8102,307.9114A251.595,251.595 0 0,1 339.5533,301.4451" fill="none" stroke="#22201D" stroke-width="0.24" stroke-linecap="round" stroke-linejoin="round"/>
<path d="M275.7483,350.9819A322.155,322.155 0 0,1 249.8932,336.4133" fill="none" stroke="#22201D" stroke-width="0.24" stroke-linecap="round" stroke-linejoin="round"/>
<path d="M189.2174,287.279A322.155,322.155 0 0,1 169.5915,265.0178" fill="none" stroke="#22201D" stroke-width="0.24" stroke-linecap="round" stroke-linejoin="round"/>
<path d="M530.2352,137.7017L542.8523,146.2762" fill="none" stroke="#A3392B" stroke-width="1.4" stroke-linecap="round" stroke-linejoin="round"/>
<path d="M568.2972,67.9649A147.57,147.57 0 0,1 461.9707,205.0401" fill="none" stroke="#A3392B" stroke-width="1.4" stroke-linecap="round" stroke-linejoin="round"/>
<path d="M568.2972,67.9649L571.9254,68.0789" fill="none" stroke="#22201D" stroke-width="0.4" stroke-linecap="round" stroke-linejoin="round"/>
<path d="M563.3417,101.5235L566.848,102.463" fill="none" stroke="#22201D" stroke-width="0.4" stroke-linecap="round" stroke-linejoin="round" stroke-dasharray="2,1.4"/>
<path d="M550.854,133.0639L554.0531,134.7793" fill="none" stroke="#22201D" stroke-width="0.4" stroke-linecap="round" stroke-linejoin="round" stroke-dasharray="2,1.4"/>
<path d="M531.4939,160.9194L534.2168,163.3199" fill="none" stroke="#22201D" stroke-width="0.4" stroke-linecap="round" stroke-linejoin="round"/>
<path d="M506.2845,183.618L508.3873,186.5769" fill="none" stroke="#22201D" stroke-width="0.4" stroke-linecap="round" stroke-linejoin="round"/>
<path d="M461.9707,205.0401L462.9835,208.526" fill="none" stroke="#A3392B" stroke-width="1.4" stroke-linecap="round" stroke-linejoin="round"/>
<path d="M456.3531,260.9256L459.4275,278.0122" fill="none" stroke="#A3392B" stroke-width="1.4" stroke-linecap="round" stroke-linejoin="round"/>
<path d="M527.8808,253.3675A218.13,218.13 0 0,1 359.9437,272.7984" fill="none" stroke="#A3392B" stroke-width="1.4" stroke-linecap="round" stroke-linejoin="round"/>
<path d="M527.8808,253.3675L529.6628,256.53" fill="none" stroke="#22201D" stroke-width="0.4" stroke-linecap="round" stroke-linejoin="round"/>
<path d="M481.6563,272.7984L482.6691,276.2843" fill="none" stroke="#22201D" stroke-width="0.4" stroke-linecap="round" stroke-linejoin="round" stroke-dasharray="2,1.4"/>
<path d="M359.9437,272.7984L358.9309,276.2843" fill="none" stroke="#A3392B" stroke-width="1.4" stroke-linecap="round" stroke-linejoin="round"/>
<path d="M432.216,281.1606L432.406,284.7857" fill="none" stroke="#22201D" stroke-width="0.4" stroke-linecap="round" stroke-linejoin="round"/>
<path d="M318.2808,314.5451L311.7211,330.6192" fill="none" stroke="#A3392B" stroke-width="1.4" stroke-linecap="round" stroke-linejoin="round"/>
<path d="M405.6911,351.6239A288.69,288.69 0 0,1 204.2504,254.2437" fill="none" stroke="#A3392B" stroke-width="1.4" stroke-linecap="round" stroke-linejoin="round"/>
<path d="M405.6911,351.6239L405.5012,355.249" fill="none" stroke="#22201D" stroke-width="0.4" stroke-linecap="round" stroke-linejoin="round"/>
<path d="M340.2581,340.5568L339.2453,344.0426" fill="none" stroke="#22201D" stroke-width="0.4" stroke-linecap="round" stroke-linejoin="round"/>
<path d="M204.2504,254.2437L201.5275,256.6443" fill="none" stroke="#A3392B" stroke-width="1.4" stroke-linecap="round" stroke-linejoin="round" stroke-dasharray="2,1.4"/>
<path d="M279.081,314.8403L277.299,318.0028" fill="none" stroke="#22201D" stroke-width="0.4" stroke-linecap="round" stroke-linejoin="round" stroke-dasharray="2,1.4"/>
<path d="M164.3453,289.4248L151.3226,300.9059" fill="none" stroke="#A3392B" stroke-width="1.4" stroke-linecap="round" stroke-linejoin="round"/>
<path d="M364.6009,418.1566A359.25,359.25 0 0,1 61.7273,74.6139" fill="none" stroke="#A3392B" stroke-width="1.4" stroke-linecap="round" stroke-linejoin="round"/>
<path d="M364.6009,418.1566L364.0331,421.7419" fill="none" stroke="#22201D" stroke-width="0.4" stroke-linecap="round" stroke-linejoin="round"/>
<path d="M285.0607,395.9486L283.6891,399.3095" fill="none" stroke="#22201D" stroke-width="0.4" stroke-linecap="round" stroke-linejoin="round" stroke-dasharray="2,1.4"/>
<path d="M212.6932,356.1642L210.5904,359.1232" fill="none" stroke="#22201D" stroke-width="0.4" stroke-linecap="round" stroke-linejoin="round"/>
<path d="M151.3226,300.9059L148.5997,303.3064" fill="none" stroke="#22201D" stroke-width="0.4" stroke-linecap="round" stroke-linejoin="round" stroke-dasharray="2,1.4"/>
<path d="M104.1917,233.0935L100.9926,234.8088" fill="none" stroke="#22201D" stroke-width="0.4" stroke-linecap="round" stroke-linejoin="round"/>
<path d="M73.7911,156.3103L70.2848,157.2498" fill="none" stroke="#22201D" stroke-width="0.4" stroke-linecap="round" stroke-linejoin="round" stroke-dasharray="2,1.4"/>
<path d="M61.7273,74.6139L58.0991,74.7279" fill="none" stroke="#A3392B" stroke-width="1.4" stroke-linecap="round" stroke-linejoin="round"/>
<text x="500.1173" y="105.8592" font-family="Georgia, 'Iowan Old Style', serif" font-size="3" fill="#22201D" text-anchor="start" dominant-baseline="central" transform="rotate(28.2,500.1173,105.8592)">Arthur Pargeter</text>
<text x="524.1769" y="118.7598" font-family="Georgia, 'Iowan Old Style', serif" font-size="3" fill="#22201D" text-anchor="start" dominant-baseline="central" transform="rotate(28.2,524.1769,118.7598)">Lydia Brayfield</text>
<text x="571.9254" y="68.0789" font-family="Georgia, 'Iowan Old Style', serif" font-size="3" fill="#22201D" text-anchor="start" dominant-baseline="central" transform="rotate(1.8,571.9254,68.0789)">Susannah Pargeter</text>
<text x="566.848" y="102.463" font-family="Georgia, 'Iowan Old Style', serif" font-size="3" fill="#22201D" text-anchor="start" dominant-baseline="central" transform="rotate(15,566.848,102.463)">Nathaniel Pargeter</text>
<text x="597.7383" y="110.7401" font-family="Georgia, 'Iowan Old Style', serif" font-size="3" fill="#22201D" text-anchor="start" dominant-baseline="central" transform="rotate(15,597.7383,110.7401)">Alice Dunmore</text>
<text x="554.0531" y="134.7793" font-family="Georgia, 'Iowan Old Style', serif" font-size="3" fill="#22201D" text-anchor="start" dominant-baseline="central" transform="rotate(28.2,554.0531,134.7793)">Reuben Pargeter</text>
<text x="534.2168" y="163.3199" font-family="Georgia, 'Iowan Old Style', serif" font-size="3" fill="#22201D" text-anchor="start" dominant-baseline="central" transform="rotate(41.4,534.2168,163.3199)">Winifred Pargeter</text>
<text x="508.3873" y="186.5769" font-family="Georgia, 'Iowan Old Style', serif" font-size="3" fill="#22201D" text-anchor="start" dominant-baseline="central" transform="rotate(54.6,508.3873,186.5769)">Frederick Pargeter</text>
<text x="526.9127" y="212.6447" font-family="Georgia, 'Iowan Old Style', serif" font-size="3" fill="#22201D" text-anchor="start" dominant-baseline="central" transform="rotate(54.6,526.9127,212.6447)">Edith Brayfield</text>
<text x="462.9835" y="208.526" font-family="Georgia, 'Iowan Old Style', serif" font-size="3" fill="#22201D" text-anchor="start" dominant-baseline="central" transform="rotate(73.8,462.9835,208.526)">Joseph Pargeter</text>
<text x="471.9056" y="239.2362" font-family="Georgia, 'Iowan Old Style', serif" font-size="3" fill="#22201D" text-anchor="start" dominant-baseline="central" transform="rotate(73.8,471.9056,239.2362)">Florence Cadogan</text>
<text x="529.6628" y="256.53" font-family="Georgia, 'Iowan Old Style', serif" font-size="3" fill="#22201D" text-anchor="start" dominant-baseline="central" transform="rotate(60.6,529.6628,256.53)">Mary Pargeter</text>
<text x="482.6691" y="276.2843" font-family="Georgia, 'Iowan Old Style', serif" font-size="3" fill="#22201D" text-anchor="start" dominant-baseline="central" transform="rotate(73.8,482.6691,276.2843)">William Pargeter</text>
<text x="432.406" y="284.7857" font-family="Georgia, 'Iowan Old Style', serif" font-size="3" fill="#22201D" text-anchor="start" dominant-baseline="central" transform="rotate(87,432.406,284.7857)">Albert Pargeter</text>
<text x="434.0797" y="316.7218" font-family="Georgia, 'Iowan Old Style', serif" font-size="3" fill="#22201D" text-anchor="start" dominant-baseline="central" transform="rotate(87,434.0797,316.7218)">Sarah Rennick</text>
<text x="358.9309" y="276.2843" font-family="Georgia, 'Iowan Old Style', serif" font-size="3" fill="#22201D" text-anchor="start" dominant-baseline="central" transform="rotate(106.2,358.9309,276.2843)">Frederick Pargeter</text>
<text x="350.0088" y="306.9945" font-family="Georgia, 'Iowan Old Style', serif" font-size="3" fill="#22201D" text-anchor="start" dominant-baseline="central" transform="rotate(106.2,350.0088,306.9945)">Sarah Boyce</text>
<text x="405.5012" y="355.249" font-family="Georgia, 'Iowan Old Style', serif" font-size="3" fill="#22201D" text-anchor="start" dominant-baseline="central" transform="rotate(93,405.5012,355.249)">Walter Pargeter</text>
<text x="403.8274" y="387.1851" font-family="Georgia, 'Iowan Old Style', serif" font-size="3" fill="#22201D" text-anchor="start" dominant-baseline="central" transform="rotate(93,403.8274,387.1851)">Hannah Threlfall</text>
<text x="339.2453" y="344.0426" font-family="Georgia, 'Iowan Old Style', serif" font-size="3" fill="#22201D" text-anchor="start" dominant-baseline="central" transform="rotate(106.2,339.2453,344.0426)">Frederick Pargeter</text>
<text x="277.299" y="318.0028" font-family="Georgia, 'Iowan Old Style', serif" font-size="3" fill="#22201D" text-anchor="start" dominant-baseline="central" transform="rotate(119.4,277.299,318.0028)">Ann Pargeter</text>
<text x="261.5999" y="345.8642" font-family="Georgia, 'Iowan Old Style', serif" font-size="3" fill="#22201D" text-anchor="start" dominant-baseline="central" transform="rotate(119.4,261.5999,345.8642)">Joseph Kentish</text>
<text x="201.5275" y="256.6443" font-family="Georgia, 'Iowan Old Style', serif" font-size="3" fill="#22201D" text-anchor="start" dominant-baseline="central" transform="rotate(138.6,201.5275,256.6443)">Samuel Pargeter</text>
<text x="177.539" y="277.793" font-family="Georgia, 'Iowan Old Style', serif" font-size="3" fill="#22201D" text-anchor="start" dominant-baseline="central" transform="rotate(138.6,177.539,277.793)">Hannah Cadogan</text>
<text x="364.0331" y="421.7419" font-family="Georgia, 'Iowan Old Style', serif" font-size="3" fill="#22201D" text-anchor="start" dominant-baseline="central" transform="rotate(99,364.0331,421.7419)">Thomas Pargeter</text>
<text x="283.6891" y="399.3095" font-family="Georgia, 'Iowan Old Style', serif" font-size="3" fill="#22201D" text-anchor="start" dominant-baseline="central" transform="rotate(112.2,283.6891,399.3095)">Sarah Pargeter</text>
<text x="210.5904" y="359.1232" font-family="Georgia, 'Iowan Old Style', serif" font-size="3" fill="#22201D" text-anchor="start" dominant-baseline="central" transform="rotate(125.4,210.5904,359.1232)">Clara Pargeter</text>
<text x="148.5997" y="303.3064" font-family="Georgia, 'Iowan Old Style', serif" font-size="3" fill="#22201D" text-anchor="start" dominant-baseline="central" transform="rotate(138.6,148.5997,303.3064)">Clara Pargeter</text>
<text x="100.9926" y="234.8088" font-family="Georgia, 'Iowan Old Style', serif" font-size="3" fill="#22201D" text-anchor="start" dominant-baseline="central" transform="rotate(151.8,100.9926,234.8088)">Alice Pargeter</text>
<text x="70.2848" y="157.2498" font-family="Georgia, 'Iowan Old Style', serif" font-size="3" fill="#22201D" text-anchor="start" dominant-baseline="central" transform="rotate(165,70.2848,157.2498)">Percy Pargeter</text>
<text x="58.0991" y="74.7279" font-family="Georgia, 'Iowan Old Style', serif" font-size="3" fill="#22201D" text-anchor="start" dominant-baseline="central" transform="rotate(178.2,58.0991,74.7279)">Beatrice Pargeter</text>
<text x="420.8" y="32" font-family="Georgia, 'Iowan Old Style', serif" font-size="6.6" fill="#22201D" text-anchor="middle" dominant-baseline="central" font-weight="600">Sample Family</text>
<path d="M 20.000,450.130 L 27.000,450.130" fill="none" stroke="#22201D" stroke-width="0.22" stroke-linecap="round" stroke-linejoin="round"/>
<text x="30" y="450.8856" font-family="sans-serif" font-size="2.16" fill="#22201D" text-anchor="start" dominant-baseline="central">two names in one cell — married</text>
<path d="M 20.000,453.802 L 27.000,453.802" fill="none" stroke="#22201D" stroke-width="0.4" stroke-linecap="round" stroke-linejoin="round"/>
<text x="30" y="454.5576" font-family="sans-serif" font-size="2.16" fill="#22201D" text-anchor="start" dominant-baseline="central">an arc over brothers and sisters</text>
<path d="M 23.500,455.474 L 23.500,459.474" fill="none" stroke="#22201D" stroke-width="0.4" stroke-linecap="round" stroke-linejoin="round"/>
<text x="30" y="458.2296" font-family="sans-serif" font-size="2.16" fill="#22201D" text-anchor="start" dominant-baseline="central">a stem from a couple to their children</text>
<path d="M 20.000,461.146 L 27.000,461.146" fill="none" stroke="#8A6F4E" stroke-width="0.32" stroke-linecap="round" stroke-linejoin="round" stroke-dasharray="1.6,1.2"/>
<text x="30" y="461.9016" font-family="sans-serif" font-size="2.16" fill="#22201D" text-anchor="start" dominant-baseline="central">a marriage between two people already on the chart</text>
</g>
<g id="CUT" inkscape:groupmode="layer" inkscape:label="CUT">
<path d="M21.5239,7H820.0761A14.5239,14.5239 0 0,1 834.6,21.5239V462.6057A14.5239,14.5239 0 0,1 820.0761,477.1296H21.5239A14.5239,14.5239 0 0,1 7,462.6057V21.5239A14.5239,14.5239 0 0,1 21.5239,7Z" fill="none" stroke="#B03A2E" stroke-width="0.05" stroke-linecap="round" stroke-linejoin="round"/>
</g>
</svg>