<?xml version="1.0" encoding="UTF-8"?>
<svg xmlns="http://www.w3.org/2000/svg" xmlns:inkscape="http://www.inkscape.org/namespaces/inkscape" width="650mm" height="650mm" viewBox="0 0 650 650">
<!-- helix | engine=radial_organic style=botanical people=31 hash=c659be4133fc -->
<rect x="0" y="0" width="650" height="650" fill="#F6F3EA"/>
<g id="ENGRAVE" inkscape:groupmode="layer" inkscape:label="ENGRAVE">
<path d="M224.8358,325A100.1642,100.1642 0 1,0 425.1642,325A100.1642,100.1642 0 1,0 224.8358,325Z" fill="none" stroke="#CFC7B4" stroke-width="0.5" stroke-linecap="round" stroke-linejoin="round"/>
<path d="M177.714,325A147.286,147.286 0 1,0 472.286,325A147.286,147.286 0 1,0 177.714,325Z" fill="none" stroke="#CFC7B4" stroke-width="0.25" stroke-linecap="round" stroke-linejoin="round" stroke-dasharray="1.5,2"/>
<path d="M145.3527,325A179.6473,179.6473 0 1,0 504.6473,325A179.6473,179.6473 0 1,0 145.3527,325Z" fill="none" stroke="#CFC7B4" stroke-width="0.25" stroke-linecap="round" stroke-linejoin="round" stroke-dasharray="1.5,2"/>
<path d="M118.7769,325A206.2231,206.2231 0 1,0 531.2231,325A206.2231,206.2231 0 1,0 118.7769,325Z" fill="none" stroke="#CFC7B4" stroke-width="0.25" stroke-linecap="round" stroke-linejoin="round" stroke-dasharray="1.5,2"/>
<path d="M95.5764,325A229.4236,229.4236 0 1,0 554.4236,325A229.4236,229.4236 0 1,0 95.5764,325Z" fill="none" stroke="#CFC7B4" stroke-width="0.25" stroke-linecap="round" stroke-linejoin="round" stroke-dasharray="1.5,2"/>
<path d="M74.6672,325A250.3328,250.3328 0 1,0 575.3328,325A250.3328,250.3328 0 1,0 74.6672,325Z" fill="none" stroke="#CFC7B4" stroke-width="0.5" stroke-linecap="round" stroke-linejoin="round"/>
<path d="M55.4487,325A269.5513,269.5513 0 1,0 594.5513,325A269.5513,269.5513 0 1,0 55.4487,325Z" fill="none" stroke="#CFC7B4" stroke-width="0.25" stroke-linecap="round" stroke-linejoin="round" stroke-dasharray="1.5,2"/>
<path d="M37.5465,325A287.4535,287.4535 0 1,0 612.4535,325A287.4535,287.4535 0 1,0 37.5465,325Z" fill="none" stroke="#CFC7B4" stroke-width="0.25" stroke-linecap="round" stroke-linejoin="round" stroke-dasharray="1.5,2"/>
<text x="325" y="223.2358" font-family="'Cormorant Garamond',Georgia,serif" font-size="1.872" fill="#CFC7B4" text-anchor="middle" dominant-baseline="central">1700</text>
<text x="325" y="176.114" font-family="'Cormorant Garamond',Georgia,serif" font-size="1.872" fill="#CFC7B4" text-anchor="middle" dominant-baseline="central">1720</text>
<text x="325" y="143.7527" font-family="'Cormorant Garamond',Georgia,serif" font-size="1.872" fill="#CFC7B4" text-anchor="middle" dominant-baseline="central">1740</text>
<text x="325" y="117.1769" font-family="'Cormorant Garamond',Georgia,serif" font-size="1.872" fill="#CFC7B4" text-anchor="middle" dominant-baseline="central">1760</text>
<text x="325" y="93.9764" font-family="'Cormorant Garamond',Georgia,serif" font-size="1.872" fill="#CFC7B4" text-anchor="middle" dominant-baseline="central">1780</text>
<text x="325" y="73.0672" font-family="'Cormorant Garamond',Georgia,serif" font-size="1.872" fill="#CFC7B4" text-anchor="middle" dominant-baseline="central">1800</text>
<text x="325" y="53.8487" font-family="'Cormorant Garamond',Georgia,serif" font-size="1.872" fill="#CFC7B4" text-anchor="middle" dominant-baseline="central">1820</text>
<text x="325" y="35.9465" font-family="'Cormorant Garamond',Georgia,serif" font-size="1.872" fill="#CFC7B4" text-anchor="middle" dominant-baseline="central">1840</text>
<path d="M18,325A307,307 0 1,0 632,325A307,307 0 1,0 18,325Z" fill="none" stroke="#CFC7B4" stroke-width="0.5" stroke-linecap="round" stroke-linejoin="round"/>
<circle cx="325" cy="602.0511" r="1" fill="#4A3B2A" stroke="#4A3B2A" stroke-width="0.35" stroke-linecap="round" stroke-linejoin="round"/>
<circle cx="424.7289" cy="565.767" r="1" fill="#4A3B2A" stroke="#4A3B2A" stroke-width="0.35" stroke-linecap="round" stroke-linejoin="round"/>
<circle cx="509.9514" cy="509.9514" r="1" fill="#4A3B2A" stroke="#4A3B2A" stroke-width="0.35" stroke-linecap="round" stroke-linejoin="round"/>
<circle cx="570.1525" cy="426.5455" r="1" fill="#4A3B2A" stroke="#4A3B2A" stroke-width="0.35" stroke-linecap="round" stroke-linejoin="round"/>
<circle cx="591.2901" cy="325" r="1" fill="#4A3B2A" stroke="#4A3B2A" stroke-width="0.35" stroke-linecap="round" stroke-linejoin="round"/>
<circle cx="573.6035" cy="222.025" r="1" fill="#4A3B2A" stroke="#4A3B2A" stroke-width="0.35" stroke-linecap="round" stroke-linejoin="round"/>
<circle cx="517.2294" cy="132.7706" r="1" fill="#4A3B2A" stroke="#4A3B2A" stroke-width="0.35" stroke-linecap="round" stroke-linejoin="round"/>
<circle cx="370.0779" cy="551.6217" r="1" fill="#4A3B2A" stroke="#4A3B2A" stroke-width="0.35" stroke-linecap="round" stroke-linejoin="round"/>
<circle cx="279.7107" cy="552.6847" r="1" fill="#4A3B2A" stroke="#4A3B2A" stroke-width="0.35" stroke-linecap="round" stroke-linejoin="round"/>
<circle cx="486.6096" cy="486.6096" r="1" fill="#4A3B2A" stroke="#4A3B2A" stroke-width="0.35" stroke-linecap="round" stroke-linejoin="round"/>
<circle cx="436.9556" cy="529.597" r="1" fill="#4A3B2A" stroke="#4A3B2A" stroke-width="0.35" stroke-linecap="round" stroke-linejoin="round"/>
<circle cx="551.6202" cy="370.0776" r="1" fill="#4A3B2A" stroke="#4A3B2A" stroke-width="0.35" stroke-linecap="round" stroke-linejoin="round"/>
<circle cx="160.8485" cy="489.1515" r="1" fill="#4A3B2A" stroke="#4A3B2A" stroke-width="0.35" stroke-linecap="round" stroke-linejoin="round"/>
<circle cx="119.602" cy="437.3939" r="1" fill="#4A3B2A" stroke="#4A3B2A" stroke-width="0.35" stroke-linecap="round" stroke-linejoin="round"/>
<circle cx="363.3815" cy="517.9567" r="1" fill="#4A3B2A" stroke="#4A3B2A" stroke-width="0.35" stroke-linecap="round" stroke-linejoin="round"/>
<circle cx="285.3744" cy="524.2116" r="1" fill="#4A3B2A" stroke="#4A3B2A" stroke-width="0.35" stroke-linecap="round" stroke-linejoin="round"/>
<circle cx="429.8999" cy="481.9937" r="1" fill="#4A3B2A" stroke="#4A3B2A" stroke-width="0.35" stroke-linecap="round" stroke-linejoin="round"/>
<circle cx="484.1911" cy="431.3681" r="1" fill="#4A3B2A" stroke="#4A3B2A" stroke-width="0.35" stroke-linecap="round" stroke-linejoin="round"/>
<circle cx="112.1609" cy="537.8391" r="1" fill="#4A3B2A" stroke="#4A3B2A" stroke-width="0.35" stroke-linecap="round" stroke-linejoin="round"/>
<circle cx="157.4208" cy="416.6994" r="1" fill="#4A3B2A" stroke="#4A3B2A" stroke-width="0.35" stroke-linecap="round" stroke-linejoin="round"/>
<circle cx="353.2027" cy="466.7845" r="1" fill="#4A3B2A" stroke="#4A3B2A" stroke-width="0.35" stroke-linecap="round" stroke-linejoin="round"/>
<circle cx="294.7504" cy="477.0751" r="1" fill="#4A3B2A" stroke="#4A3B2A" stroke-width="0.35" stroke-linecap="round" stroke-linejoin="round"/>
<circle cx="401.5193" cy="439.5192" r="1" fill="#4A3B2A" stroke="#4A3B2A" stroke-width="0.35" stroke-linecap="round" stroke-linejoin="round"/>
<circle cx="458.4815" cy="380.2898" r="1" fill="#4A3B2A" stroke="#4A3B2A" stroke-width="0.35" stroke-linecap="round" stroke-linejoin="round"/>
<circle cx="438.3593" cy="416.184" r="1" fill="#4A3B2A" stroke="#4A3B2A" stroke-width="0.35" stroke-linecap="round" stroke-linejoin="round"/>
<circle cx="475.6177" cy="295.0403" r="1" fill="#4A3B2A" stroke="#4A3B2A" stroke-width="0.35" stroke-linecap="round" stroke-linejoin="round"/>
<circle cx="454.1333" cy="238.7159" r="1" fill="#4A3B2A" stroke="#4A3B2A" stroke-width="0.35" stroke-linecap="round" stroke-linejoin="round"/>
<circle cx="208.1518" cy="441.8482" r="1" fill="#4A3B2A" stroke="#4A3B2A" stroke-width="0.35" stroke-linecap="round" stroke-linejoin="round"/>
<circle cx="82.1297" cy="457.8988" r="1" fill="#4A3B2A" stroke="#4A3B2A" stroke-width="0.35" stroke-linecap="round" stroke-linejoin="round"/>
<circle cx="335.73" cy="378.9432" r="1" fill="#4A3B2A" stroke="#4A3B2A" stroke-width="0.35" stroke-linecap="round" stroke-linejoin="round"/>
<circle cx="308.9484" cy="405.6967" r="1" fill="#4A3B2A" stroke="#4A3B2A" stroke-width="0.35" stroke-linecap="round" stroke-linejoin="round"/>
<text x="335.73" y="378.9432" font-family="'Cormorant Garamond',Georgia,serif" font-size="2.6" fill="#3A3025" text-anchor="middle" dominant-baseline="central" transform="rotate(348.75,335.73,378.9432)">Arthur Pargeter</text>
<text x="308.9484" y="405.6967" font-family="'Cormorant Garamond',Georgia,serif" font-size="2.6" fill="#3A3025" text-anchor="middle" dominant-baseline="central" transform="rotate(371.25,308.9484,405.6967)">Lydia Brayfield</text>
<text x="353.2027" y="466.7845" font-family="'Cormorant Garamond',Georgia,serif" font-size="2.6" fill="#3A3025" text-anchor="middle" dominant-baseline="central" transform="rotate(348.75,353.2027,466.7845)">Joseph Pargeter</text>
<text x="294.7504" y="477.0751" font-family="'Cormorant Garamond',Georgia,serif" font-size="2.6" fill="#3A3025" text-anchor="middle" dominant-baseline="central" transform="rotate(371.25,294.7504,477.0751)">Florence Cadogan</text>
<text x="401.5193" y="439.5192" font-family="'Cormorant Garamond',Georgia,serif" font-size="2.6" fill="#3A3025" text-anchor="middle" dominant-baseline="central" transform="rotate(326.25,401.5193,439.5192)">Susannah Pargeter</text>
<text x="458.4815" y="380.2898" font-family="'Cormorant Garamond',Georgia,serif" font-size="2.6" fill="#3A3025" text-anchor="middle" dominant-baseline="central" transform="rotate(292.5,458.4815,380.2898)">Nathaniel Pargeter</text>
<text x="438.3593" y="416.184" font-family="'Cormorant Garamond',Georgia,serif" font-size="2.6" fill="#3A3025" text-anchor="middle" dominant-baseline="central" transform="rotate(308.8125,438.3593,416.184)">Alice Dunmore</text>
<text x="475.6177" y="295.0403" font-family="'Cormorant Garamond',Georgia,serif" font-size="2.6" fill="#3A3025" text-anchor="middle" dominant-baseline="central" transform="rotate(78.75,475.6177,295.0403)">Reuben Pargeter</text>
<text x="454.1333" y="238.7159" font-family="'Cormorant Garamond',Georgia,serif" font-size="2.6" fill="#3A3025" text-anchor="middle" dominant-baseline="central" transform="rotate(56.25,454.1333,238.7159)">Winifred Pargeter</text>
<text x="208.1518" y="441.8482" font-family="'Cormorant Garamond',Georgia,serif" font-size="2.6" fill="#3A3025" text-anchor="middle" dominant-baseline="central" transform="rotate(405,208.1518,441.8482)">Frederick Pargeter</text>
<text x="82.1297" y="457.8988" font-family="'Cormorant Garamond',Georgia,serif" font-size="2.6" fill="#3A3025" text-anchor="middle" dominant-baseline="central" transform="rotate(421.3125,82.1297,457.8988)">Edith Brayfield</text>
<text x="363.3815" y="517.9567" font-family="'Cormorant Garamond',Georgia,serif" font-size="2.6" fill="#3A3025" text-anchor="middle" dominant-baseline="central" transform="rotate(348.75,363.3815,517.9567)">Frederick Pargeter</text>
<text x="285.3744" y="524.2116" font-family="'Cormorant Garamond',Georgia,serif" font-size="2.6" fill="#3A3025" text-anchor="middle" dominant-baseline="central" transform="rotate(371.25,285.3744,524.2116)">Sarah Boyce</text>
<text x="429.8999" y="481.9937" font-family="'Cormorant Garamond',Georgia,serif" font-size="2.6" fill="#3A3025" text-anchor="middle" dominant-baseline="central" transform="rotate(326.25,429.8999,481.9937)">Mary Pargeter</text>
<text x="484.1911" y="431.3681" font-family="'Cormorant Garamond',Georgia,serif" font-size="2.6" fill="#3A3025" text-anchor="middle" dominant-baseline="central" transform="rotate(303.75,484.1911,431.3681)">William Pargeter</text>
<text x="112.1609" y="537.8391" font-family="'Cormorant Garamond',Georgia,serif" font-size="2.6" fill="#3A3025" text-anchor="middle" dominant-baseline="central" transform="rotate(405,112.1609,537.8391)">Albert Pargeter</text>
<text x="157.4208" y="416.6994" font-family="'Cormorant Garamond',Georgia,serif" font-size="2.6" fill="#3A3025" text-anchor="middle" dominant-baseline="central" transform="rotate(421.3125,157.4208,416.6994)">Sarah Rennick</text>
<text x="370.0779" y="551.6217" font-family="'Cormorant Garamond',Georgia,serif" font-size="2.6" fill="#3A3025" text-anchor="middle" dominant-baseline="central" transform="rotate(348.75,370.0779,551.6217)">Samuel Pargeter</text>
<text x="279.7107" y="552.6847" font-family="'Cormorant Garamond',Georgia,serif" font-size="2.6" fill="#3A3025" text-anchor="middle" dominant-baseline="central" transform="rotate(371.25,279.7107,552.6847)">Hannah Cadogan</text>
<text x="486.6096" y="486.6096" font-family="'Cormorant Garamond',Georgia,serif" font-size="2.6" fill="#3A3025" text-anchor="middle" dominant-baseline="central" transform="rotate(315,486.6096,486.6096)">Walter Pargeter</text>
<text x="436.9556" y="529.597" font-family="'Cormorant Garamond',Georgia,serif" font-size="2.6" fill="#3A3025" text-anchor="middle" dominant-baseline="central" transform="rotate(331.3125,436.9556,529.597)">Hannah Threlfall</text>
<text x="551.6202" y="370.0776" font-family="'Cormorant Garamond',Georgia,serif" font-size="2.6" fill="#3A3025" text-anchor="middle" dominant-baseline="central" transform="rotate(281.25,551.6202,370.0776)">Frederick Pargeter</text>
<text x="160.8485" y="489.1515" font-family="'Cormorant Garamond',Georgia,serif" font-size="2.6" fill="#3A3025" text-anchor="middle" dominant-baseline="central" transform="rotate(405,160.8485,489.1515)">Ann Pargeter</text>
<text x="119.602" y="437.3939" font-family="'Cormorant Garamond',Georgia,serif" font-size="2.6" fill="#3A3025" text-anchor="middle" dominant-baseline="central" transform="rotate(421.3125,119.602,437.3939)">Joseph Kentish</text>
<text x="325" y="602.0511" font-family="'Cormorant Garamond',Georgia,serif" font-size="2.6" fill="#3A3025" text-anchor="middle" dominant-baseline="central" transform="rotate(360,325,602.0511)">Beatrice Pargeter</text>
<text x="424.7289" y="565.767" font-family="'Cormorant Garamond',Georgia,serif" font-size="2.6" fill="#3A3025" text-anchor="middle" dominant-baseline="central" transform="rotate(337.5,424.7289,565.767)">Thomas Pargeter</text>
<text x="509.9514" y="509.9514" font-family="'Cormorant Garamond',Georgia,serif" font-size="2.6" fill="#3A3025" text-anchor="middle" dominant-baseline="central" transform="rotate(315,509.9514,509.9514)">Sarah Pargeter</text>
<text x="570.1525" y="426.5455" font-family="'Cormorant Garamond',Georgia,serif" font-size="2.6" fill="#3A3025" text-anchor="middle" dominant-baseline="central" transform="rotate(292.5,570.1525,426.5455)">Clara Pargeter</text>
<text x="591.2901" y="325" font-family="'Cormorant Garamond',Georgia,serif" font-size="2.6" fill="#3A3025" text-anchor="middle" dominant-baseline="central" transform="rotate(90,591.2901,325)">Clara Pargeter</text>
<text x="573.6035" y="222.025" font-family="'Cormorant Garamond',Georgia,serif" font-size="2.6" fill="#3A3025" text-anchor="middle" dominant-baseline="central" transform="rotate(67.5,573.6035,222.025)">Alice Pargeter</text>
<text x="517.2294" y="132.7706" font-family="'Cormorant Garamond',Georgia,serif" font-size="2.6" fill="#3A3025" text-anchor="middle" dominant-baseline="central" transform="rotate(45,517.2294,132.7706)">Percy Pargeter</text>
<text x="325" y="325" font-family="'Cormorant Garamond',Georgia,serif" font-size="5.72" fill="#3A3025" text-anchor="middle" dominant-baseline="central" font-weight="600">Sample Family</text>
</g>
<g id="ENGRAVE_DEEP" inkscape:groupmode="layer" inkscape:label="ENGRAVE_DEEP">
<circle cx="325" cy="602.0511" r="3.38" fill="none" stroke="#B7746B" stroke-width="1.3" stroke-linecap="round" stroke-linejoin="round"/>
<circle cx="370.0779" cy="551.6217" r="3.38" fill="none" stroke="#B7746B" stroke-width="1.3" stroke-linecap="round" stroke-linejoin="round"/>
<circle cx="279.7107" cy="552.6847" r="3.38" fill="none" stroke="#B7746B" stroke-width="1.3" stroke-linecap="round" stroke-linejoin="round"/>
<circle cx="363.3815" cy="517.9567" r="3.38" fill="none" stroke="#B7746B" stroke-width="1.3" stroke-linecap="round" stroke-linejoin="round"/>
<circle cx="285.3744" cy="524.2116" r="3.38" fill="none" stroke="#B7746B" stroke-width="1.3" stroke-linecap="round" stroke-linejoin="round"/>
<circle cx="353.2027" cy="466.7845" r="3.38" fill="none" stroke="#B7746B" stroke-width="1.3" stroke-linecap="round" stroke-linejoin="round"/>
<circle cx="294.7504" cy="477.0751" r="3.38" fill="none" stroke="#B7746B" stroke-width="1.3" stroke-linecap="round" stroke-linejoin="round"/>
<circle cx="335.73" cy="378.9432" r="3.38" fill="none" stroke="#B7746B" stroke-width="1.3" stroke-linecap="round" stroke-linejoin="round"/>
<circle cx="308.9484" cy="405.6967" r="3.38" fill="none" stroke="#B7746B" stroke-width="1.3" stroke-linecap="round" stroke-linejoin="round"/>
</g>
</svg>