<?xml version="1.0" encoding="UTF-8"?>
<svg xmlns="http://www.w3.org/2000/svg" xmlns:inkscape="http://www.inkscape.org/namespaces/inkscape" width="700mm" height="700mm" viewBox="0 0 700 700">
<!-- helix | engine=radial_lifeline style=lifelines people=31 hash=0761a9c9b045 -->
<rect x="0" y="0" width="700" height="700" fill="#FBF8F2"/>
<g id="ENGRAVE" inkscape:groupmode="layer" inkscape:label="ENGRAVE">
<path d="M233.8697,350A116.1303,116.1303 0 1,0 466.1303,350A116.1303,116.1303 0 1,0 233.8697,350Z" fill="none" stroke="#CFC6B4" stroke-width="0.5" stroke-linecap="round" stroke-linejoin="round"/>
<path d="M190.6815,350A159.3185,159.3185 0 1,0 509.3185,350A159.3185,159.3185 0 1,0 190.6815,350Z" fill="none" stroke="#CFC6B4" stroke-width="0.25" stroke-linecap="round" stroke-linejoin="round" stroke-dasharray="1.5,2"/>
<path d="M156.9236,350A193.0764,193.0764 0 1,0 543.0764,350A193.0764,193.0764 0 1,0 156.9236,350Z" fill="none" stroke="#CFC6B4" stroke-width="0.25" stroke-linecap="round" stroke-linejoin="round" stroke-dasharray="1.5,2"/>
<path d="M128.2465,350A221.7535,221.7535 0 1,0 571.7535,350A221.7535,221.7535 0 1,0 128.2465,350Z" fill="none" stroke="#CFC6B4" stroke-width="0.25" stroke-linecap="round" stroke-linejoin="round" stroke-dasharray="1.5,2"/>
<path d="M102.8751,350A247.1249,247.1249 0 1,0 597.1249,350A247.1249,247.1249 0 1,0 102.8751,350Z" fill="none" stroke="#CFC6B4" stroke-width="0.25" stroke-linecap="round" stroke-linejoin="round" stroke-dasharray="1.5,2"/>
<path d="M79.8762,350A270.1238,270.1238 0 1,0 620.1238,350A270.1238,270.1238 0 1,0 79.8762,350Z" fill="none" stroke="#CFC6B4" stroke-width="0.5" stroke-linecap="round" stroke-linejoin="round"/>
<path d="M58.6875,350A291.3125,291.3125 0 1,0 641.3125,350A291.3125,291.3125 0 1,0 58.6875,350Z" fill="none" stroke="#CFC6B4" stroke-width="0.25" stroke-linecap="round" stroke-linejoin="round" stroke-dasharray="1.5,2"/>
<path d="M38.9387,350A311.0613,311.0613 0 1,0 661.0613,350A311.0613,311.0613 0 1,0 38.9387,350Z" fill="none" stroke="#CFC6B4" stroke-width="0.25" stroke-linecap="round" stroke-linejoin="round" stroke-dasharray="1.5,2"/>
<text x="350" y="232.2697" font-family="'Iowan Old Style',Georgia,serif" font-size="1.728" fill="#CFC6B4" text-anchor="middle" dominant-baseline="central">1700</text>
<text x="350" y="189.0815" font-family="'Iowan Old Style',Georgia,serif" font-size="1.728" fill="#CFC6B4" text-anchor="middle" dominant-baseline="central">1720</text>
<text x="350" y="155.3236" font-family="'Iowan Old Style',Georgia,serif" font-size="1.728" fill="#CFC6B4" text-anchor="middle" dominant-baseline="central">1740</text>
<text x="350" y="126.6465" font-family="'Iowan Old Style',Georgia,serif" font-size="1.728" fill="#CFC6B4" text-anchor="middle" dominant-baseline="central">1760</text>
<text x="350" y="101.2751" font-family="'Iowan Old Style',Georgia,serif" font-size="1.728" fill="#CFC6B4" text-anchor="middle" dominant-baseline="central">1780</text>
<text x="350" y="78.2762" font-family="'Iowan Old Style',Georgia,serif" font-size="1.728" fill="#CFC6B4" text-anchor="middle" dominant-baseline="central">1800</text>
<text x="350" y="57.0875" font-family="'Iowan Old Style',Georgia,serif" font-size="1.728" fill="#CFC6B4" text-anchor="middle" dominant-baseline="central">1820</text>
<text x="350" y="37.3387" font-family="'Iowan Old Style',Georgia,serif" font-size="1.728" fill="#CFC6B4" text-anchor="middle" dominant-baseline="central">1840</text>
<path d="M18,350A332,332 0 1,0 682,350A332,332 0 1,0 18,350Z" fill="none" stroke="#CFC6B4" stroke-width="0.5" stroke-linecap="round" stroke-linejoin="round"/>
<path d="M408.036,643.9108L413.1529,669.8245A326,326 0 0,1 286.8471,669.8245L291.964,643.9108A299.5859,299.5859 0 0,0 408.036,643.9108Z" fill="none" stroke="#535D5D" stroke-width="0.35" stroke-linecap="round" stroke-linejoin="round"/>
<path d="M501.4067,587.2495L525.3756,624.808A326,326 0 0,1 420.3093,668.3278L410.7,624.8214A281.445,281.445 0 0,0 501.4067,587.2495Z" fill="none" stroke="#5A5857" stroke-width="0.35" stroke-linecap="round" stroke-linejoin="round"/>
<path d="M581.5374,511.8534L617.1903,536.7761A326,326 0 0,1 536.7761,617.1903L511.8534,581.5374A282.4998,282.4998 0 0,0 581.5374,511.8534Z" fill="none" stroke="#625451" stroke-width="0.35" stroke-linecap="round" stroke-linejoin="round" stroke-dasharray="2,1.4" opacity="0.8"/>
<path d="M629.933,411.829L667.8806,420.2105A325.542,325.542 0 0,1 624.4219,525.1292L591.6623,504.2228A286.6798,286.6798 0 0,0 629.933,411.829Z" fill="none" stroke="#6B4E49" stroke-width="0.35" stroke-linecap="round" stroke-linejoin="round"/>
<path d="M633.305,299.8162L635.3334,299.4569A289.7754,289.7754 0 0,1 635.3334,400.5431L633.305,400.1838A287.7154,287.7154 0 0,0 633.305,299.8162Z" fill="none" stroke="#8A3B2F" stroke-width="0.35" stroke-linecap="round" stroke-linejoin="round" stroke-dasharray="2,1.4" opacity="0.8"/>
<path d="M595.1353,193.5608L596.8535,192.4643A292.8381,292.8381 0 0,1 635.9464,286.8428L633.9561,287.2824A290.7999,290.7999 0 0,0 595.1353,193.5608Z" fill="none" stroke="#8A3B2F" stroke-width="0.35" stroke-linecap="round" stroke-linejoin="round"/>
<path d="M518.3575,109.1583L521.2322,105.0458A298.8696,298.8696 0 0,1 594.9542,178.7678L590.8417,181.6425A293.852,293.852 0 0,0 518.3575,109.1583Z" fill="none" stroke="#873C31" stroke-width="0.35" stroke-linecap="round" stroke-linejoin="round" stroke-dasharray="2,1.4" opacity="0.8"/>
<path d="M444.9376,580.1078L474.3341,651.3586A326,326 0 0,1 350.4552,675.9997L350.3476,598.9229A248.9232,248.9232 0 0,0 444.9376,580.1078Z" fill="none" stroke="#3F696E" stroke-width="0.35" stroke-linecap="round" stroke-linejoin="round" stroke-dasharray="2,1.4" opacity="0.8"/>
<path d="M349.6508,600.1132L349.5731,655.7556A305.7559,305.7559 0 0,1 233.3868,632.6447L254.6085,581.2081A250.1134,250.1134 0 0,0 349.6508,600.1132Z" fill="none" stroke="#B8B0A4" stroke-width="0.35" stroke-linecap="round" stroke-linejoin="round"/>
<path d="M554.489,487.0486L602.3692,519.1379A303.8056,303.8056 0 0,1 519.1379,602.3692L487.0486,554.489A246.1667,246.1667 0 0,0 554.489,487.0486Z" fill="none" stroke="#605553" stroke-width="0.35" stroke-linecap="round" stroke-linejoin="round"/>
<path d="M489.3228,559.1428L518.4325,602.8406A303.8056,303.8056 0 0,1 472.1383,628.1728L451.0294,580.0969A251.2997,251.2997 0 0,0 489.3228,559.1428Z" fill="none" stroke="#635350" stroke-width="0.35" stroke-linecap="round" stroke-linejoin="round"/>
<path d="M598.8665,355.2347L662.4214,356.5716A312.4905,312.4905 0 0,1 641.1545,463.4871L581.9259,440.4008A248.9215,248.9215 0 0,0 598.8665,355.2347Z" fill="none" stroke="#5A5857" stroke-width="0.35" stroke-linecap="round" stroke-linejoin="round"/>
<path d="M210.7542,557.7675L208.1309,561.6817A254.8253,254.8253 0 0,1 138.3183,491.8691L142.2325,489.2458A250.1134,250.1134 0 0,0 210.7542,557.7675Z" fill="none" stroke="#883C30" stroke-width="0.35" stroke-linecap="round" stroke-linejoin="round" stroke-dasharray="2,1.4" opacity="0.8"/>
<path d="M140.0223,489.879L80.5944,529.4675A323.7097,323.7097 0 0,1 53.6025,480.1403L118.9845,451.4328A252.303,252.303 0 0,0 140.0223,489.879Z" fill="none" stroke="#535D5E" stroke-width="0.35" stroke-linecap="round" stroke-linejoin="round"/>
<path d="M430.6476,545.4721L455.7168,606.2343A277.186,277.186 0 0,1 350.387,627.1857L350.2952,561.4551A211.4554,211.4554 0 0,0 430.6476,545.4721Z" fill="none" stroke="#5F5553" stroke-width="0.35" stroke-linecap="round" stroke-linejoin="round"/>
<path d="M349.6951,568.3724L349.5731,655.7556A305.7559,305.7559 0 0,1 233.3868,632.6447L266.7142,551.8664A218.3726,218.3726 0 0,0 349.6951,568.3724Z" fill="none" stroke="#4C6163" stroke-width="0.35" stroke-linecap="round" stroke-linejoin="round"/>
<path d="M490.4254,496.4598L544.7825,553.1528A281.445,281.445 0 0,1 463.1487,607.6988L431.5728,535.7839A202.9034,202.9034 0 0,0 490.4254,496.4598Z" fill="none" stroke="#575A5A" stroke-width="0.35" stroke-linecap="round" stroke-linejoin="round"/>
<path d="M538.3909,432.7175L592.7522,456.586A265.1211,265.1211 0 0,1 541.3699,533.4851L498.5151,492.3959A205.7506,205.7506 0 0,0 538.3909,432.7175Z" fill="none" stroke="#65524E" stroke-width="0.35" stroke-linecap="round" stroke-linejoin="round" stroke-dasharray="2,1.4" opacity="0.8"/>
<path d="M168.5058,620.8059L167.9491,621.6366A327,327 0 0,1 78.3634,532.0509L79.1941,531.4942A326,326 0 0,0 168.5058,620.8059Z" fill="none" stroke="#B8B0A4" stroke-width="0.35" stroke-linecap="round" stroke-linejoin="round"/>
<path d="M179.1509,463.813L178.3187,464.3674A206.2871,206.2871 0 0,1 161.1179,432.9331L162.0335,432.5311A205.2871,205.2871 0 0,0 179.1509,463.813Z" fill="none" stroke="#8B3A2E" stroke-width="0.35" stroke-linecap="round" stroke-linejoin="round"/>
<path d="M409.716,494.7384L451.5429,596.1176A266.2421,266.2421 0 0,1 350.3717,616.2418L350.2186,506.5732A156.5733,156.5733 0 0,0 409.716,494.7384Z" fill="none" stroke="#B8B0A4" stroke-width="0.35" stroke-linecap="round" stroke-linejoin="round"/>
<path d="M349.7665,517.2472L349.6205,621.7681A271.7684,271.7684 0 0,1 246.3494,601.2262L286.213,504.6056A167.2473,167.2473 0 0,0 349.7665,517.2472Z" fill="none" stroke="#4C6163" stroke-width="0.35" stroke-linecap="round" stroke-linejoin="round"/>
<path d="M453.6606,458.1151L503.0048,509.5798A221.0796,221.0796 0 0,1 438.8801,552.4266L410.2162,487.1438A149.7812,149.7812 0 0,0 453.6606,458.1151Z" fill="none" stroke="#67504C" stroke-width="0.35" stroke-linecap="round" stroke-linejoin="round"/>
<path d="M503.4404,380.744L575.8156,395.2454A230.3038,230.3038 0 0,1 541.6691,477.6824L480.238,436.7595A156.4901,156.4901 0 0,0 503.4404,380.744Z" fill="none" stroke="#64524F" stroke-width="0.35" stroke-linecap="round" stroke-linejoin="round" stroke-dasharray="2,1.4" opacity="0.8"/>
<path d="M480.8321,437.6837L577.5669,502.5154A273.9483,273.9483 0 0,1 547.7415,539.5942L463.685,459.0009A157.4976,157.4976 0 0,0 480.8321,437.6837Z" fill="none" stroke="#466568" stroke-width="0.35" stroke-linecap="round" stroke-linejoin="round"/>
<path d="M504.4053,289.8154L512.553,286.6396A174.465,174.465 0 0,1 524.4264,346.3311L515.6835,346.515A165.7202,165.7202 0 0,0 504.4053,289.8154Z" fill="none" stroke="#873C31" stroke-width="0.35" stroke-linecap="round" stroke-linejoin="round" stroke-dasharray="2,1.4" opacity="0.8"/>
<path d="M470.9104,234.0713L541.3699,166.5149A265.1211,265.1211 0 0,1 592.7522,243.414L503.3746,282.6573A167.5076,167.5076 0 0,0 470.9104,234.0713Z" fill="none" stroke="#515E5F" stroke-width="0.35" stroke-linecap="round" stroke-linejoin="round"/>
<path d="M250.9914,497.7299L185.8411,594.9401A294.8623,294.8623 0 0,1 105.0599,514.1589L202.2701,449.0086A177.8393,177.8393 0 0,0 250.9914,497.7299Z" fill="none" stroke="#3F696E" stroke-width="0.35" stroke-linecap="round" stroke-linejoin="round"/>
<path d="M100.8523,515.9724L100.0201,516.5269A300.3684,300.3684 0 0,1 74.9744,470.7564L75.8901,470.3544A299.3684,299.3684 0 0,0 100.8523,515.9724Z" fill="none" stroke="#B8B0A4" stroke-width="0.35" stroke-linecap="round" stroke-linejoin="round"/>
<path d="M386.2323,437.8192L427.9186,538.8576A204.3001,204.3001 0 0,1 350.2853,554.2999L350.1326,444.9999A95,95 0 0,0 386.2323,437.8192Z" fill="none" stroke="#5E5654" stroke-width="0.35" stroke-linecap="round" stroke-linejoin="round"/>
<path d="M349.8548,453.9643L349.6283,616.2418A266.2421,266.2421 0 0,1 248.4571,596.1176L310.3487,446.1061A103.9644,103.9644 0 0,0 349.8548,453.9643Z" fill="none" stroke="#3E6B70" stroke-width="0.35" stroke-linecap="round" stroke-linejoin="round"/>
<text x="379.1953" y="496.7746" font-family="'Iowan Old Style',Georgia,serif" font-size="2.4" fill="#22201D" text-anchor="middle" dominant-baseline="central" transform="rotate(78.75,379.1953,496.7746)">Arthur Pargeter</text>
<text x="313.8881" y="531.5465" font-family="'Iowan Old Style',Georgia,serif" font-size="2.4" fill="#22201D" text-anchor="middle" dominant-baseline="central" transform="rotate(281.25,313.8881,531.5465)">Lydia Brayfield</text>
<text x="391.2436" y="557.3455" font-family="'Iowan Old Style',Georgia,serif" font-size="2.4" fill="#22201D" text-anchor="middle" dominant-baseline="central" transform="rotate(78.75,391.2436,557.3455)">Joseph Pargeter</text>
<text x="307.1761" y="565.2901" font-family="'Iowan Old Style',Georgia,serif" font-size="2.4" fill="#22201D" text-anchor="middle" dominant-baseline="central" transform="rotate(281.25,307.1761,565.2901)">Florence Cadogan</text>
<text x="453.0196" y="504.1797" font-family="'Iowan Old Style',Georgia,serif" font-size="2.4" fill="#22201D" text-anchor="middle" dominant-baseline="central" transform="rotate(56.25,453.0196,504.1797)">Susannah Pargeter</text>
<text x="528.6755" y="424.0098" font-family="'Iowan Old Style',Georgia,serif" font-size="2.4" fill="#22201D" text-anchor="middle" dominant-baseline="central" transform="rotate(22.5,528.6755,424.0098)">Nathaniel Pargeter</text>
<text x="518.0916" y="485.2095" font-family="'Iowan Old Style',Georgia,serif" font-size="2.4" fill="#22201D" text-anchor="middle" dominant-baseline="central" transform="rotate(38.8125,518.0916,485.2095)">Alice Dunmore</text>
<text x="516.8243" y="316.8166" font-family="'Iowan Old Style',Georgia,serif" font-size="2.4" fill="#22201D" text-anchor="middle" dominant-baseline="central" transform="rotate(-11.25,516.8243,316.8166)">Reuben Pargeter</text>
<text x="529.8588" y="229.8222" font-family="'Iowan Old Style',Georgia,serif" font-size="2.4" fill="#22201D" text-anchor="middle" dominant-baseline="central" transform="rotate(-33.75,529.8588,229.8222)">Winifred Pargeter</text>
<text x="182.8747" y="517.1253" font-family="'Iowan Old Style',Georgia,serif" font-size="2.4" fill="#22201D" text-anchor="middle" dominant-baseline="central" transform="rotate(315,182.8747,517.1253)">Frederick Pargeter</text>
<text x="86.9402" y="493.9465" font-family="'Iowan Old Style',Georgia,serif" font-size="2.4" fill="#22201D" text-anchor="middle" dominant-baseline="central" transform="rotate(331.3125,86.9402,493.9465)">Edith Brayfield</text>
<text x="397.6646" y="589.6261" font-family="'Iowan Old Style',Georgia,serif" font-size="2.4" fill="#22201D" text-anchor="middle" dominant-baseline="central" transform="rotate(78.75,397.6646,589.6261)">Frederick Pargeter</text>
<text x="298.8738" y="607.0287" font-family="'Iowan Old Style',Georgia,serif" font-size="2.4" fill="#22201D" text-anchor="middle" dominant-baseline="central" transform="rotate(281.25,298.8738,607.0287)">Sarah Boyce</text>
<text x="484.5448" y="551.3605" font-family="'Iowan Old Style',Georgia,serif" font-size="2.4" fill="#22201D" text-anchor="middle" dominant-baseline="central" transform="rotate(56.25,484.5448,551.3605)">Mary Pargeter</text>
<text x="545.7578" y="480.8012" font-family="'Iowan Old Style',Georgia,serif" font-size="2.4" fill="#22201D" text-anchor="middle" dominant-baseline="central" transform="rotate(33.75,545.7578,480.8012)">William Pargeter</text>
<text x="119.1296" y="580.8704" font-family="'Iowan Old Style',Georgia,serif" font-size="2.4" fill="#22201D" text-anchor="middle" dominant-baseline="central" transform="rotate(315,119.1296,580.8704)">Albert Pargeter</text>
<text x="169.4731" y="448.7844" font-family="'Iowan Old Style',Georgia,serif" font-size="2.4" fill="#22201D" text-anchor="middle" dominant-baseline="central" transform="rotate(331.3125,169.4731,448.7844)">Sarah Rennick</text>
<text x="406.081" y="631.9381" font-family="'Iowan Old Style',Georgia,serif" font-size="2.4" fill="#22201D" text-anchor="middle" dominant-baseline="central" transform="rotate(78.75,406.081,631.9381)">Samuel Pargeter</text>
<text x="295.7776" y="622.5942" font-family="'Iowan Old Style',Georgia,serif" font-size="2.208" fill="#22201D" text-anchor="middle" dominant-baseline="central" transform="rotate(281.25,295.7776,622.5942)">HC</text>
<text x="544.4446" y="544.4446" font-family="'Iowan Old Style',Georgia,serif" font-size="2.4" fill="#22201D" text-anchor="middle" dominant-baseline="central" transform="rotate(45,544.4446,544.4446)">Walter Pargeter</text>
<text x="483.2342" y="593.4833" font-family="'Iowan Old Style',Georgia,serif" font-size="2.4" fill="#22201D" text-anchor="middle" dominant-baseline="central" transform="rotate(61.3125,483.2342,593.4833)">Hannah Threlfall</text>
<text x="625.3123" y="404.763" font-family="'Iowan Old Style',Georgia,serif" font-size="2.4" fill="#22201D" text-anchor="middle" dominant-baseline="central" transform="rotate(11.25,625.3123,404.763)">Frederick Pargeter</text>
<text x="171.4772" y="528.5228" font-family="'Iowan Old Style',Georgia,serif" font-size="2.208" fill="#22201D" text-anchor="middle" dominant-baseline="central" transform="rotate(315,171.4772,528.5228)">AP</text>
<text x="350" y="662.7929" font-family="'Iowan Old Style',Georgia,serif" font-size="2.4" fill="#22201D" text-anchor="middle" dominant-baseline="central" transform="rotate(90,350,662.7929)">Beatrice Pargeter</text>
<text x="466.2296" y="630.603" font-family="'Iowan Old Style',Georgia,serif" font-size="2.4" fill="#22201D" text-anchor="middle" dominant-baseline="central" transform="rotate(67.5,466.2296,630.603)">Thomas Pargeter</text>
<text x="565.1372" y="565.1372" font-family="'Iowan Old Style',Georgia,serif" font-size="2.4" fill="#22201D" text-anchor="middle" dominant-baseline="central" transform="rotate(45,565.1372,565.1372)">Sarah Pargeter</text>
<text x="632.8096" y="467.1436" font-family="'Iowan Old Style',Georgia,serif" font-size="2.4" fill="#22201D" text-anchor="middle" dominant-baseline="central" transform="rotate(22.5,632.8096,467.1436)">Clara Pargeter</text>
<text x="638.7454" y="350" font-family="'Iowan Old Style',Georgia,serif" font-size="2.4" fill="#22201D" text-anchor="middle" dominant-baseline="central">Clara Pargeter</text>
<text x="619.6056" y="238.3257" font-family="'Iowan Old Style',Georgia,serif" font-size="2.4" fill="#22201D" text-anchor="middle" dominant-baseline="central" transform="rotate(-22.5,619.6056,238.3257)">Alice Pargeter</text>
<text x="559.5587" y="140.4413" font-family="'Iowan Old Style',Georgia,serif" font-size="2.4" fill="#22201D" text-anchor="middle" dominant-baseline="central" transform="rotate(-45,559.5587,140.4413)">Percy Pargeter</text>
<text x="350" y="350" font-family="'Iowan Old Style',Georgia,serif" font-size="5.28" fill="#22201D" text-anchor="middle" dominant-baseline="central" font-weight="600">Sample Family</text>
</g>
<g id="ENGRAVE_DEEP" inkscape:groupmode="layer" inkscape:label="ENGRAVE_DEEP">
<circle cx="350" cy="649.5859" r="3.38" fill="none" stroke="#A3392B" stroke-width="1.3" stroke-linecap="round" stroke-linejoin="round"/>
<circle cx="398.5625" cy="594.1402" r="3.38" fill="none" stroke="#A3392B" stroke-width="1.3" stroke-linecap="round" stroke-linejoin="round"/>
<circle cx="301.2053" cy="595.3076" r="3.38" fill="none" stroke="#A3392B" stroke-width="1.3" stroke-linecap="round" stroke-linejoin="round"/>
<circle cx="391.2529" cy="557.3923" r="3.38" fill="none" stroke="#A3392B" stroke-width="1.3" stroke-linecap="round" stroke-linejoin="round"/>
<circle cx="307.3976" cy="564.1766" r="3.38" fill="none" stroke="#A3392B" stroke-width="1.3" stroke-linecap="round" stroke-linejoin="round"/>
<circle cx="380.5459" cy="503.5648" r="3.38" fill="none" stroke="#A3392B" stroke-width="1.3" stroke-linecap="round" stroke-linejoin="round"/>
<circle cx="317.3717" cy="514.0337" r="3.38" fill="none" stroke="#A3392B" stroke-width="1.3" stroke-linecap="round" stroke-linejoin="round"/>
<circle cx="368.5336" cy="443.1746" r="3.38" fill="none" stroke="#A3392B" stroke-width="1.3" stroke-linecap="round" stroke-linejoin="round"/>
<circle cx="329.7175" cy="451.9668" r="3.38" fill="none" stroke="#A3392B" stroke-width="1.3" stroke-linecap="round" stroke-linejoin="round"/>
</g>
</svg>