<?xml version="1.0" encoding="UTF-8"?>
<svg xmlns="http://www.w3.org/2000/svg" xmlns:inkscape="http://www.inkscape.org/namespaces/inkscape" width="1000mm" height="1000mm" viewBox="0 0 1000 1000">
<!-- helix | engine=radial_rings style=panel1m people=23 hash=589a04004b7d -->
<rect x="0" y="0" width="1000" height="1000" fill="#FBF8F2"/>
<g id="GUIDE" inkscape:groupmode="layer" inkscape:label="GUIDE">
<path d="M309.58,500A190.42,190.42 0 1,0 690.42,500A190.42,190.42 0 1,0 309.58,500Z" fill="none" stroke="#DAD2C2" stroke-width="0.2" stroke-linecap="round" stroke-linejoin="round" stroke-dasharray="1,2.5"/>
<path d="M229.16,500A270.84,270.84 0 1,0 770.84,500A270.84,270.84 0 1,0 229.16,500Z" fill="none" stroke="#DAD2C2" stroke-width="0.2" stroke-linecap="round" stroke-linejoin="round" stroke-dasharray="1,2.5"/>
<path d="M131.028,500A368.972,368.972 0 1,0 868.972,500A368.972,368.972 0 1,0 131.028,500Z" fill="none" stroke="#DAD2C2" stroke-width="0.2" stroke-linecap="round" stroke-linejoin="round" stroke-dasharray="1,2.5"/>
</g>
<g id="ENGRAVE" inkscape:groupmode="layer" inkscape:label="ENGRAVE">
<path d="M608.4038,461.6122L679.4978,436.4365" fill="none" stroke="#2A2622" stroke-width="0.6" stroke-linecap="round" stroke-linejoin="round"/>
<path d="M684.211,434.7675L755.305,409.5918" fill="none" stroke="#2A2622" stroke-width="0.6" stroke-linecap="round" stroke-linejoin="round"/>
<path d="M239.9818,407.9227L152.1917,376.8346" fill="none" stroke="#2A2622" stroke-width="0.6" stroke-linecap="round" stroke-linejoin="round"/>
<path d="M686.2589,460.4095A190.42,190.42 0 0,1 669.6655,586.4489" fill="none" stroke="#2A2622" stroke-width="0.6" stroke-linecap="round" stroke-linejoin="round"/>
<path d="M764.9215,443.6892A270.84,270.84 0 1,1 235.0785,443.6892" fill="none" stroke="#2A2622" stroke-width="0.6" stroke-linecap="round" stroke-linejoin="round"/>
<path d="M828.7565,332.4902A368.972,368.972 0 0,1 760.9026,760.9026" fill="none" stroke="#2A2622" stroke-width="0.6" stroke-linecap="round" stroke-linejoin="round"/>
<path d="M669.6655,586.4489L674.1205,588.7188" fill="none" stroke="#22201D" stroke-width="0.6" stroke-linecap="round" stroke-linejoin="round"/>
<path d="M686.2589,460.4095L691.1496,459.3699" fill="none" stroke="#22201D" stroke-width="0.6" stroke-linecap="round" stroke-linejoin="round" stroke-dasharray="2,1.4" opacity="0.8"/>
<path d="M764.9215,443.6892L769.8122,442.6496" fill="none" stroke="#22201D" stroke-width="0.6" stroke-linecap="round" stroke-linejoin="round"/>
<path d="M741.3202,622.9588L745.7752,625.2287" fill="none" stroke="#22201D" stroke-width="0.6" stroke-linecap="round" stroke-linejoin="round"/>
<path d="M610.1606,747.4247L612.1942,751.9924" fill="none" stroke="#22201D" stroke-width="0.6" stroke-linecap="round" stroke-linejoin="round" stroke-dasharray="2,1.4" opacity="0.8"/>
<path d="M500,770.84L500,775.84" fill="none" stroke="#22201D" stroke-width="0.6" stroke-linecap="round" stroke-linejoin="round"/>
<path d="M235.0785,443.6892L230.1878,442.6496" fill="none" stroke="#22201D" stroke-width="0.6" stroke-linecap="round" stroke-linejoin="round"/>
<path d="M329.5549,710.4822L326.4083,714.3679" fill="none" stroke="#22201D" stroke-width="0.6" stroke-linecap="round" stroke-linejoin="round"/>
<path d="M235.0785,556.3108L230.1878,557.3504" fill="none" stroke="#22201D" stroke-width="0.6" stroke-linecap="round" stroke-linejoin="round" stroke-dasharray="2,1.4" opacity="0.8"/>
<path d="M828.7565,332.4902L833.2115,330.2203" fill="none" stroke="#22201D" stroke-width="0.6" stroke-linecap="round" stroke-linejoin="round" stroke-dasharray="2,1.4" opacity="0.8"/>
<path d="M868.4663,480.6895L873.4595,480.4278" fill="none" stroke="#22201D" stroke-width="0.6" stroke-linecap="round" stroke-linejoin="round"/>
<path d="M844.465,632.2277L849.1329,634.0196" fill="none" stroke="#22201D" stroke-width="0.6" stroke-linecap="round" stroke-linejoin="round"/>
<path d="M760.9026,760.9026L764.4381,764.4381" fill="none" stroke="#22201D" stroke-width="0.6" stroke-linecap="round" stroke-linejoin="round"/>
<path d="M671.4475,412.6431L674.1205,411.2812" fill="none" stroke="#22201D" stroke-width="0.6" stroke-linecap="round" stroke-linejoin="round"/>
<path d="M599.7927,449.1531L602.4658,447.7911" fill="none" stroke="#22201D" stroke-width="0.6" stroke-linecap="round" stroke-linejoin="round"/>
<path d="M743.1022,376.1332L745.7752,374.7713" fill="none" stroke="#22201D" stroke-width="0.6" stroke-linecap="round" stroke-linejoin="round"/>
<path d="M609.5525,476.7139L612.487,476.0902" fill="none" stroke="#22201D" stroke-width="0.6" stroke-linecap="round" stroke-linejoin="round"/>
<path d="M688.2152,540.0064L691.1496,540.6301" fill="none" stroke="#22201D" stroke-width="0.6" stroke-linecap="round" stroke-linejoin="round"/>
<path d="M766.8778,556.7266L769.8122,557.3504" fill="none" stroke="#22201D" stroke-width="0.6" stroke-linecap="round" stroke-linejoin="round"/>
<path d="M671.7038,712.0365L673.5917,714.3679" fill="none" stroke="#22201D" stroke-width="0.6" stroke-linecap="round" stroke-linejoin="round"/>
<path d="M429.3838,763.5432L428.6074,766.441" fill="none" stroke="#22201D" stroke-width="0.6" stroke-linecap="round" stroke-linejoin="round"/>
<path d="M279.2678,660.3713L276.8408,662.1347" fill="none" stroke="#22201D" stroke-width="0.6" stroke-linecap="round" stroke-linejoin="round"/>
<path d="M256.8978,376.1332L254.2248,374.7713" fill="none" stroke="#22201D" stroke-width="0.6" stroke-linecap="round" stroke-linejoin="round"/>
<path d="M669.6088,412.3455A190.92,190.92 0 0,1 670.6075,414.3057" fill="none" stroke="#2A2622" stroke-width="0.6" stroke-linecap="round" stroke-linejoin="round"/>
<path d="M597.952,448.8564A110.5,110.5 0 0,1 598.9507,450.8166" fill="none" stroke="#2A2622" stroke-width="0.6" stroke-linecap="round" stroke-linejoin="round" stroke-dasharray="0.6,1.2"/>
<path d="M741.2643,375.8351A271.34,271.34 0 0,1 742.2631,377.7953" fill="none" stroke="#2A2622" stroke-width="0.6" stroke-linecap="round" stroke-linejoin="round"/>
<path d="M607.8513,475.951A110.5,110.5 0 0,1 608.3087,478.1028" fill="none" stroke="#2A2622" stroke-width="0.6" stroke-linecap="round" stroke-linejoin="round" stroke-dasharray="0.6,1.2"/>
<path d="M686.9735,538.6179A190.92,190.92 0 0,1 686.5161,540.7698" fill="none" stroke="#2A2622" stroke-width="0.6" stroke-linecap="round" stroke-linejoin="round"/>
<path d="M765.6371,555.3383A271.34,271.34 0 0,1 765.1797,557.4903" fill="none" stroke="#2A2622" stroke-width="0.6" stroke-linecap="round" stroke-linejoin="round"/>
<path d="M671.6132,710.1768A271.34,271.34 0 0,1 669.9035,711.5613" fill="none" stroke="#2A2622" stroke-width="0.6" stroke-linecap="round" stroke-linejoin="round"/>
<path d="M430.8351,762.3769A271.34,271.34 0 0,1 428.7101,761.8075" fill="none" stroke="#2A2622" stroke-width="0.6" stroke-linecap="round" stroke-linejoin="round"/>
<path d="M281.1297,660.3783A271.34,271.34 0 0,1 279.8366,658.5984" fill="none" stroke="#2A2622" stroke-width="0.6" stroke-linecap="round" stroke-linejoin="round"/>
<path d="M257.7369,377.7953A271.34,271.34 0 0,1 258.7357,375.8351" fill="none" stroke="#2A2622" stroke-width="0.6" stroke-linecap="round" stroke-linejoin="round"/>
<path d="M598.0107,450.061L602.4658,447.7911" fill="none" stroke="#2A2622" stroke-width="0.9" stroke-linecap="round" stroke-linejoin="round"/>
<path d="M607.5962,477.1297L612.487,476.0902" fill="none" stroke="#2A2622" stroke-width="0.9" stroke-linecap="round" stroke-linejoin="round"/>
<path d="M601.3965,448.3359A113.8,113.8 0 0,1 611.3132,476.3396" fill="none" stroke="#2A2622" stroke-width="0.96" stroke-linecap="round" stroke-linejoin="round"/>
<path d="M689.9758,540.3806A194.22,194.22 0 0,1 673.0513,588.174" fill="none" stroke="#2A2622" stroke-width="0.96" stroke-linecap="round" stroke-linejoin="round"/>
<path d="M673.0513,411.826A194.22,194.22 0 0,1 689.9758,459.6194" fill="none" stroke="#2A2622" stroke-width="0.96" stroke-linecap="round" stroke-linejoin="round"/>
<path d="M744.706,375.316A274.64,274.64 0 0,1 768.6385,442.8991" fill="none" stroke="#2A2622" stroke-width="0.96" stroke-linecap="round" stroke-linejoin="round"/>
<path d="M768.6385,557.1009A274.64,274.64 0 0,1 744.706,624.684" fill="none" stroke="#2A2622" stroke-width="0.96" stroke-linecap="round" stroke-linejoin="round"/>
<path d="M231.3615,442.8991A274.64,274.64 0 0,1 255.294,375.316" fill="none" stroke="#2A2622" stroke-width="0.96" stroke-linecap="round" stroke-linejoin="round"/>
<path d="M327.1634,713.4354A274.64,274.64 0 0,1 277.8116,661.4293" fill="none" stroke="#2A2622" stroke-width="0.96" stroke-linecap="round" stroke-linejoin="round"/>
<path d="M672.8366,713.4354A274.64,274.64 0 0,1 611.7062,750.8961" fill="none" stroke="#2A2622" stroke-width="0.96" stroke-linecap="round" stroke-linejoin="round"/>
<path d="M500,774.64A274.64,274.64 0 0,1 428.9179,765.2819" fill="none" stroke="#2A2622" stroke-width="0.96" stroke-linecap="round" stroke-linejoin="round"/>
<text x="605.5593" y="446.2148" font-family="'Iowan Old Style',Georgia,serif" font-size="3.4" fill="#22201D" text-anchor="middle" dominant-baseline="central" transform="rotate(63,605.5593,446.2148)">Ernest Whitcombe</text>
<text x="608.66" y="444.635" font-family="'Iowan Old Style',Georgia,serif" font-size="2.6" fill="#6E675C" text-anchor="middle" dominant-baseline="central" transform="rotate(63,608.66,444.635)">1695–1770</text>
<text x="611.3473" y="443.2657" font-family="'Iowan Old Style',Georgia,serif" font-size="2.6" fill="#8A8073" text-anchor="middle" dominant-baseline="central" transform="rotate(63,611.3473,443.2657)">Trowbridge</text>
<text x="615.8831" y="475.3683" font-family="'Iowan Old Style',Georgia,serif" font-size="3.4" fill="#22201D" text-anchor="middle" dominant-baseline="central" transform="rotate(78,615.8831,475.3683)">Esther Threlfall</text>
<text x="619.2871" y="474.6448" font-family="'Iowan Old Style',Georgia,serif" font-size="2.6" fill="#6E675C" text-anchor="middle" dominant-baseline="central" transform="rotate(78,619.2871,474.6448)">1693–1753</text>
<text x="622.2371" y="474.0177" font-family="'Iowan Old Style',Georgia,serif" font-size="2.6" fill="#8A8073" text-anchor="middle" dominant-baseline="central" transform="rotate(78,622.2371,474.0177)">Bathwick</text>
<text x="677.2141" y="409.7049" font-family="'Iowan Old Style',Georgia,serif" font-size="3.4" fill="#22201D" text-anchor="middle" dominant-baseline="central" transform="rotate(63,677.2141,409.7049)">Joseph Ashworth</text>
<text x="680.3148" y="408.125" font-family="'Iowan Old Style',Georgia,serif" font-size="2.6" fill="#6E675C" text-anchor="middle" dominant-baseline="central" transform="rotate(63,680.3148,408.125)">1724–1781</text>
<text x="683.002" y="406.7558" font-family="'Iowan Old Style',Georgia,serif" font-size="2.6" fill="#8A8073" text-anchor="middle" dominant-baseline="central" transform="rotate(63,683.002,406.7558)">Trowbridge</text>
<text x="694.5457" y="458.648" font-family="'Iowan Old Style',Georgia,serif" font-size="3.4" fill="#22201D" text-anchor="middle" dominant-baseline="central" transform="rotate(78,694.5457,458.648)">Hannah Whitcombe</text>
<text x="697.9497" y="457.9245" font-family="'Iowan Old Style',Georgia,serif" font-size="2.6" fill="#6E675C" text-anchor="middle" dominant-baseline="central" transform="rotate(78,697.9497,457.9245)">1718–1766</text>
<text x="700.8998" y="457.2974" font-family="'Iowan Old Style',Georgia,serif" font-size="2.6" fill="#8A8073" text-anchor="middle" dominant-baseline="central" transform="rotate(78,700.8998,457.2974)">Chippenham</text>
<text x="694.5457" y="541.352" font-family="'Iowan Old Style',Georgia,serif" font-size="3.4" fill="#22201D" text-anchor="middle" dominant-baseline="central" transform="rotate(282,694.5457,541.352)">Alice Boyce</text>
<text x="697.9497" y="542.0755" font-family="'Iowan Old Style',Georgia,serif" font-size="2.6" fill="#6E675C" text-anchor="middle" dominant-baseline="central" transform="rotate(282,697.9497,542.0755)">1717–1798</text>
<text x="700.8998" y="542.7026" font-family="'Iowan Old Style',Georgia,serif" font-size="2.6" fill="#8A8073" text-anchor="middle" dominant-baseline="central" transform="rotate(282,700.8998,542.7026)">Keynsham</text>
<text x="677.2141" y="590.2951" font-family="'Iowan Old Style',Georgia,serif" font-size="3.4" fill="#22201D" text-anchor="middle" dominant-baseline="central" transform="rotate(297,677.2141,590.2951)">Walter Whitcombe</text>
<text x="680.3148" y="591.875" font-family="'Iowan Old Style',Georgia,serif" font-size="2.6" fill="#6E675C" text-anchor="middle" dominant-baseline="central" transform="rotate(297,680.3148,591.875)">1715–1773</text>
<text x="683.002" y="593.2442" font-family="'Iowan Old Style',Georgia,serif" font-size="2.6" fill="#8A8073" text-anchor="middle" dominant-baseline="central" transform="rotate(297,683.002,593.2442)">Chippenham</text>
<text x="748.8688" y="373.195" font-family="'Iowan Old Style',Georgia,serif" font-size="3.4" fill="#22201D" text-anchor="middle" dominant-baseline="central" transform="rotate(63,748.8688,373.195)">Nathaniel Pargeter</text>
<text x="751.9695" y="371.6151" font-family="'Iowan Old Style',Georgia,serif" font-size="2.6" fill="#6E675C" text-anchor="middle" dominant-baseline="central" transform="rotate(63,751.9695,371.6151)">1746–1807</text>
<text x="773.2084" y="441.9278" font-family="'Iowan Old Style',Georgia,serif" font-size="3.4" fill="#22201D" text-anchor="middle" dominant-baseline="central" transform="rotate(78,773.2084,441.9278)">Sarah Ashworth</text>
<text x="776.6123" y="441.2042" font-family="'Iowan Old Style',Georgia,serif" font-size="2.6" fill="#6E675C" text-anchor="middle" dominant-baseline="central" transform="rotate(78,776.6123,441.2042)">1747–1815</text>
<text x="773.2084" y="558.0722" font-family="'Iowan Old Style',Georgia,serif" font-size="3.4" fill="#22201D" text-anchor="middle" dominant-baseline="central" transform="rotate(282,773.2084,558.0722)">Florence Whitcombe</text>
<text x="776.6123" y="558.7958" font-family="'Iowan Old Style',Georgia,serif" font-size="2.6" fill="#6E675C" text-anchor="middle" dominant-baseline="central" transform="rotate(282,776.6123,558.7958)">1752–1811</text>
<text x="748.8688" y="626.805" font-family="'Iowan Old Style',Georgia,serif" font-size="3.4" fill="#22201D" text-anchor="middle" dominant-baseline="central" transform="rotate(297,748.8688,626.805)">Samuel Ashworth</text>
<text x="751.9695" y="628.3849" font-family="'Iowan Old Style',Georgia,serif" font-size="2.6" fill="#6E675C" text-anchor="middle" dominant-baseline="central" transform="rotate(297,751.9695,628.3849)">1750–1820</text>
<text x="675.7767" y="717.0662" font-family="'Iowan Old Style',Georgia,serif" font-size="3.4" fill="#22201D" text-anchor="middle" dominant-baseline="central" transform="rotate(321,675.7767,717.0662)">Winifred Sarah Oakley</text>
<text x="677.9668" y="719.7707" font-family="'Iowan Old Style',Georgia,serif" font-size="2.6" fill="#6E675C" text-anchor="middle" dominant-baseline="central" transform="rotate(321,677.9668,719.7707)">1751–1800</text>
<text x="613.6064" y="755.1642" font-family="'Iowan Old Style',Georgia,serif" font-size="3.4" fill="#22201D" text-anchor="middle" dominant-baseline="central" transform="rotate(336,613.6064,755.1642)">Frederick Percy Ashworth</text>
<text x="615.0219" y="758.3433" font-family="'Iowan Old Style',Georgia,serif" font-size="2.6" fill="#6E675C" text-anchor="middle" dominant-baseline="central" transform="rotate(336,615.0219,758.3433)">1752–1816</text>
<text x="500" y="779.312" font-family="'Iowan Old Style',Georgia,serif" font-size="3.4" fill="#22201D" text-anchor="middle" dominant-baseline="central">Charlotte Ashworth</text>
<text x="500" y="782.792" font-family="'Iowan Old Style',Georgia,serif" font-size="2.6" fill="#6E675C" text-anchor="middle" dominant-baseline="central">1753–1795</text>
<text x="427.7087" y="769.7947" font-family="'Iowan Old Style',Georgia,serif" font-size="3.4" fill="#22201D" text-anchor="middle" dominant-baseline="central" transform="rotate(15,427.7087,769.7947)">Ernest Vasey</text>
<text x="426.808" y="773.1561" font-family="'Iowan Old Style',Georgia,serif" font-size="2.6" fill="#6E675C" text-anchor="middle" dominant-baseline="central" transform="rotate(15,426.808,773.1561)">1749–1797</text>
<text x="324.2233" y="717.0662" font-family="'Iowan Old Style',Georgia,serif" font-size="3.4" fill="#22201D" text-anchor="middle" dominant-baseline="central" transform="rotate(39,324.2233,717.0662)">Charlotte Ashworth</text>
<text x="322.0332" y="719.7707" font-family="'Iowan Old Style',Georgia,serif" font-size="2.6" fill="#6E675C" text-anchor="middle" dominant-baseline="central" transform="rotate(39,322.0332,719.7707)">1759–1815</text>
<text x="274.0318" y="664.1755" font-family="'Iowan Old Style',Georgia,serif" font-size="3.4" fill="#22201D" text-anchor="middle" dominant-baseline="central" transform="rotate(54,274.0318,664.1755)">Thomas Vasey</text>
<text x="271.2165" y="666.221" font-family="'Iowan Old Style',Georgia,serif" font-size="2.6" fill="#6E675C" text-anchor="middle" dominant-baseline="central" transform="rotate(54,271.2165,666.221)">1758–1808</text>
<text x="226.7916" y="558.0722" font-family="'Iowan Old Style',Georgia,serif" font-size="3.4" fill="#22201D" text-anchor="middle" dominant-baseline="central" transform="rotate(78,226.7916,558.0722)">Mary Ashworth</text>
<text x="223.3877" y="558.7958" font-family="'Iowan Old Style',Georgia,serif" font-size="2.6" fill="#6E675C" text-anchor="middle" dominant-baseline="central" transform="rotate(78,223.3877,558.7958)">1833</text>
<text x="226.7916" y="441.9278" font-family="'Iowan Old Style',Georgia,serif" font-size="3.4" fill="#22201D" text-anchor="middle" dominant-baseline="central" transform="rotate(282,226.7916,441.9278)">Reuben Ashworth</text>
<text x="223.3877" y="441.2042" font-family="'Iowan Old Style',Georgia,serif" font-size="2.6" fill="#6E675C" text-anchor="middle" dominant-baseline="central" transform="rotate(282,223.3877,441.2042)">1756–1800</text>
<text x="251.1312" y="373.195" font-family="'Iowan Old Style',Georgia,serif" font-size="3.4" fill="#22201D" text-anchor="middle" dominant-baseline="central" transform="rotate(297,251.1312,373.195)">Winifred Susannah Threlfall</text>
<text x="248.0305" y="371.6151" font-family="'Iowan Old Style',Georgia,serif" font-size="2.6" fill="#6E675C" text-anchor="middle" dominant-baseline="central" transform="rotate(297,248.0305,371.6151)">1760–1793</text>
<text x="836.3051" y="328.644" font-family="'Iowan Old Style',Georgia,serif" font-size="3.4" fill="#22201D" text-anchor="middle" dominant-baseline="central" transform="rotate(63,836.3051,328.644)">Edward Albert Ashworth</text>
<text x="839.4058" y="327.0641" font-family="'Iowan Old Style',Georgia,serif" font-size="2.6" fill="#6E675C" text-anchor="middle" dominant-baseline="central" transform="rotate(63,839.4058,327.0641)">1781–1851</text>
<text x="876.9267" y="480.2461" font-family="'Iowan Old Style',Georgia,serif" font-size="3.4" fill="#22201D" text-anchor="middle" dominant-baseline="central" transform="rotate(87,876.9267,480.2461)">Hannah Ashworth</text>
<text x="880.402" y="480.064" font-family="'Iowan Old Style',Georgia,serif" font-size="2.6" fill="#6E675C" text-anchor="middle" dominant-baseline="central" transform="rotate(87,880.402,480.064)">1784–1847</text>
<text x="852.3743" y="635.2638" font-family="'Iowan Old Style',Georgia,serif" font-size="3.4" fill="#22201D" text-anchor="middle" dominant-baseline="central" transform="rotate(291,852.3743,635.2638)">William Ashworth</text>
<text x="855.6232" y="636.511" font-family="'Iowan Old Style',Georgia,serif" font-size="2.6" fill="#6E675C" text-anchor="middle" dominant-baseline="central" transform="rotate(291,855.6232,636.511)">1787–1853</text>
<text x="766.8932" y="766.8932" font-family="'Iowan Old Style',Georgia,serif" font-size="3.4" fill="#22201D" text-anchor="middle" dominant-baseline="central" transform="rotate(315,766.8932,766.8932)">Beatrice Ashworth</text>
<text x="769.3539" y="769.3539" font-family="'Iowan Old Style',Georgia,serif" font-size="2.6" fill="#6E675C" text-anchor="middle" dominant-baseline="central" transform="rotate(315,769.3539,769.3539)">1790–1850</text>
<path d="M40,915.392L49,915.392" fill="none" stroke="#2A2622" stroke-width="0.6" stroke-linecap="round" stroke-linejoin="round"/>
<text x="52" y="915.392" font-family="'Iowan Old Style',Georgia,serif" font-size="2.788" fill="#2A2622" text-anchor="start" dominant-baseline="central">Descent, and a recorded marriage</text>
<path d="M40,920.968L49,920.968" fill="none" stroke="#2A2622" stroke-width="0.6" stroke-linecap="round" stroke-linejoin="round" stroke-dasharray="1.6,1.4"/>
<text x="52" y="920.968" font-family="'Iowan Old Style',Georgia,serif" font-size="2.788" fill="#2A2622" text-anchor="start" dominant-baseline="central">Unmarried or unrecorded union</text>
<path d="M40,926.544L49,926.544" fill="none" stroke="#2A2622" stroke-width="0.6" stroke-linecap="round" stroke-linejoin="round" stroke-dasharray="3,2"/>
<text x="52" y="926.544" font-family="'Iowan Old Style',Georgia,serif" font-size="2.788" fill="#2A2622" text-anchor="start" dominant-baseline="central">Joins half-siblings — one parent shared</text>
<circle cx="44" cy="932.12" r="1.02" fill="none" stroke="#2A2622" stroke-width="0.48" stroke-linecap="round" stroke-linejoin="round" stroke-dasharray="0.8,1.6"/>
<text x="52" y="932.12" font-family="'Iowan Old Style',Georgia,serif" font-size="2.788" fill="#2A2622" text-anchor="start" dominant-baseline="central">Parent not recorded</text>
<path d="M40,937.696L49,937.696" fill="none" stroke="#2A2622" stroke-width="0.6" stroke-linecap="round" stroke-linejoin="round"/>
<text x="52" y="937.696" font-family="'Iowan Old Style',Georgia,serif" font-size="2.788" fill="#2A2622" text-anchor="start" dominant-baseline="central">Line ends here by choice — not my family</text>
<path d="M40,943.272L49,943.272" fill="none" stroke="#2A2622" stroke-width="0.6" stroke-linecap="round" stroke-linejoin="round" stroke-dasharray="0.6,1.2"/>
<text x="52" y="943.272" font-family="'Iowan Old Style',Georgia,serif" font-size="2.788" fill="#2A2622" text-anchor="start" dominant-baseline="central">Line ends here for now — still to research</text>
<path d="M40,948.848L49,948.848" fill="none" stroke="#2A2622" stroke-width="0.6" stroke-linecap="round" stroke-linejoin="round" stroke-dasharray="2,1.4"/>
<text x="52" y="948.848" font-family="'Iowan Old Style',Georgia,serif" font-size="2.788" fill="#2A2622" text-anchor="start" dominant-baseline="central">Uncertain — not yet proved</text>
<text x="500" y="500" font-family="'Iowan Old Style',Georgia,serif" font-size="7.48" fill="#2A2622" text-anchor="middle" dominant-baseline="central" font-weight="600">Sample Family</text>
</g>
<g id="ENGRAVE_DEEP" inkscape:groupmode="layer" inkscape:label="ENGRAVE_DEEP">
<path d="M602.4658,447.7911L669.6655,413.5511L671.3719,416.9852L673.0088,420.453L674.5756,423.953L676.0715,427.4839L677.4961,431.0441L678.8487,434.6324L680.1287,438.2471L681.3357,441.8869L682.4692,445.5502L683.5286,449.2357L684.5137,452.9417L685.4239,456.6668L686.2589,460.4095L691.1496,459.3699" fill="none" stroke="#9B3A2E" stroke-width="1.1" stroke-linecap="round" stroke-linejoin="round"/>
<path d="M230.1878,442.6496L139.0909,423.2864L137.6259,430.5354L136.3064,437.8123L135.1331,445.1142L134.1063,452.4381L133.2265,459.7812L132.4941,467.1404L131.9093,474.5128L131.4724,481.8954L131.1836,489.2853L131.0429,496.6795L131.0505,504.0751L131.2063,511.469L131.5102,518.8583L131.9622,526.24L132.5621,533.6112L133.3096,540.9689L134.2043,548.3101L135.2461,555.632L136.4344,562.9314L137.7687,570.2056L139.2486,577.4516L140.8734,584.6665L142.6425,591.8473L144.5551,598.9913L146.6106,606.0954L148.808,613.157L151.1465,620.1731L153.6252,627.1409L156.243,634.0577L158.9989,640.9205L161.8918,647.7268L164.9206,654.4737L168.084,661.1586L171.3807,667.7787L174.8094,674.3314L178.3688,680.8141L182.0574,687.2241L185.8738,693.5589L189.8163,699.816L193.8835,705.9927L198.0736,712.0867L202.385,718.0955L206.816,724.0167L211.3648,729.8479L216.0296,735.5868L220.8084,741.231L225.6994,746.7783L230.7006,752.2264L235.81,757.5732L241.0255,762.8166L246.3451,767.9543L251.7665,772.9844L257.2877,777.9048L262.9065,782.7136L268.6204,787.4088L274.4273,791.9885L280.3249,796.451L286.3107,800.7943L292.3823,805.0168L298.5374,809.1167L304.7734,813.0925L311.0878,816.9425L317.4781,820.6651L323.9418,824.2589L330.4762,827.7224L337.0786,831.0543L343.7466,834.2532L350.4773,837.3178L357.2681,840.2469L364.1162,843.0393L371.0189,845.6938L377.9735,848.2095L384.977,850.5853L392.0268,852.8202L399.12,854.9134L406.2536,856.8641L413.425,858.6713L420.6311,860.3344L427.8691,861.8528L435.1361,863.2258L442.4291,864.4529L449.7453,865.5336L457.0817,866.4674L464.4353,867.254L471.8032,867.893L479.1824,868.3843L486.57,868.7275L493.963,868.9226L501.3584,868.9695L508.7532,868.8682L516.1446,868.6186L523.5295,868.221L530.9049,867.6754L538.2679,866.9822L545.6155,866.1415L552.9448,865.1537L560.2528,864.0191L567.5366,862.7384L574.7933,861.3119L582.0199,859.7403L589.2136,858.0241L596.3714,856.1641L603.4906,854.161L610.5681,852.0157L617.6012,849.7289L624.5871,847.3016L631.5229,844.7348L638.4059,842.0294L645.2333,839.1867L652.0023,836.2077L658.7103,833.0936L665.3545,829.8458L671.9323,826.4654L678.441,822.9538L684.878,819.3125L691.2407,815.5429L697.5266,811.6465L703.7332,807.625L709.8579,803.4798L715.8983,799.2127L721.8519,794.8255L727.7165,790.3197L733.4895,785.6974L739.1687,780.9602L744.7519,776.1102L750.2367,771.1493L755.621,766.0794L760.9026,760.9026L764.4381,764.4381" fill="none" stroke="#9B3A2E" stroke-width="1.1" stroke-linecap="round" stroke-linejoin="round"/>
<path d="M674.1205,411.2812L741.3202,377.0412L743.7324,381.8948L746.0469,386.7957L748.2629,391.7419L750.3795,396.7314L752.3958,401.7623L754.3111,406.8326L756.1245,411.9401L757.8354,417.083L759.4429,422.259L760.9466,427.4662L762.3458,432.7024L763.64,437.9655L764.8285,443.2535L765.911,448.5643L766.887,453.8956L767.7562,459.2454L768.5181,464.6115L769.1725,469.9918L769.719,475.3841L770.1576,480.7862L770.488,486.1961L770.7101,491.6114L770.8237,497.0302L770.8289,502.4501L770.7257,507.8691L770.514,513.2849L770.194,518.6953L769.7658,524.0983L769.2295,529.4917L768.5855,534.8732L767.8339,540.2407L766.975,545.5922L766.0092,550.9254L764.9369,556.2382L763.7585,561.5284L762.4745,566.7941L761.0853,572.033L759.5916,577.243L757.994,582.4221L756.293,587.5682L754.4894,592.6792L752.5839,597.7532L750.5772,602.7879L748.4702,607.7815L746.2637,612.732L743.9585,617.6373L741.5557,622.4955L739.0561,627.3046L736.4608,632.0628L733.7708,636.768L730.9872,641.4185L728.1111,646.0124L725.1437,650.5478L722.086,655.0229L718.9395,659.4359L715.7052,663.7851L712.3846,668.0687L708.9789,672.285L705.4896,676.4323L701.9179,680.5089L698.2654,684.5132L694.5335,688.4437L690.7237,692.2987L686.8375,696.0767L682.8765,699.7761L678.8422,703.3956L674.7364,706.9336L670.5605,710.3887L666.3164,713.7596L662.0056,717.0449L657.63,720.2433L653.1912,723.3534L648.6911,726.3741L644.1315,729.3042L639.5141,732.1424L634.8409,734.8877L630.1137,737.5389L625.3343,740.095L620.5048,742.5549L615.627,744.9177L610.7029,747.1825L605.7345,749.3482L600.7237,751.4141L595.6726,753.3793L590.5832,755.243L585.4575,757.0045L580.2976,758.6631L575.1055,760.2181L569.8834,761.6689L564.6332,763.0149L559.3572,764.2556L554.0574,765.3905L548.736,766.419L543.3951,767.3409L538.0367,768.1558L532.6632,768.8632L527.2765,769.463L521.879,769.9548L516.4726,770.3386L511.0597,770.6141L505.6424,770.7812L500.2227,770.8399L494.803,770.7901L489.3854,770.6319L483.972,770.3653L478.5651,769.9905L473.1667,769.5075L467.7791,768.9166L462.4044,768.218L457.0447,767.4119L451.7023,766.4988L446.3792,765.479L441.0775,764.3529L435.7995,763.1209L430.5471,761.7835L425.3226,760.3413L420.128,758.7948L414.9653,757.1447L409.8368,755.3916L404.7443,753.5363L399.6899,751.5794L394.6758,749.5218L389.7038,747.3642L384.776,745.1076L379.8943,742.7528L375.0608,740.3008L370.2772,737.7526L365.5456,735.1092L360.8679,732.3716L356.2459,729.541L351.6814,726.6184L347.1763,723.6051L342.7325,720.5022L338.3516,717.3111L334.0355,714.0329L329.7858,710.669L325.6042,707.2207L321.4926,703.6895L317.4524,700.0767L313.4853,696.3837L309.5929,692.6121L305.7767,688.7634L302.0384,684.8391L298.3793,680.8408L294.8009,676.77L291.3047,672.6285L287.8921,668.4178L284.5645,664.1397L281.3231,659.7958L278.1693,655.388L275.1043,650.9179L272.1294,646.3874L269.2457,641.7983L266.4544,637.1524L263.7567,632.4515L261.1536,627.6976L258.6461,622.8926L256.2353,618.0384L253.9221,613.1369L251.7074,608.1901L249.5922,603.1999L247.5772,598.1685L245.6634,593.0977L243.8514,587.9897L242.1419,582.8464L240.5358,577.6699L239.0335,572.4623L237.6357,567.2257L236.343,561.9622L235.1559,556.6739L234.0749,551.3628L233.1003,546.0313L232.2327,540.6812L231.4722,535.3149L230.8193,529.9344L230.2742,524.542L229.8371,519.1397L229.5082,513.7298L229.2876,508.3143L229.1755,502.8956L229.1718,497.4756L229.2765,492.0567L229.4897,486.641L229.8111,481.2306L230.2408,475.8277L230.7785,470.4345L231.4241,465.0532L232.1772,459.6858L233.0375,454.3346L234.0047,449.0017L235.0785,443.6892L230.1878,442.6496" fill="none" stroke="#9B3A2E" stroke-width="1.1" stroke-linecap="round" stroke-linejoin="round"/>
</g>
</svg>